<svg width="173" height="296" viewBox="0 0 173 296" fill="none" xmlns="http://www.w3.org/2000/svg">
<path d="M75.9815 266.813L83.7751 266.812L87.4825 236.766L75.9802 236.767L75.9815 266.813Z" fill="#FFB8B8"/>
<path d="M73.9934 264.27L89.3415 264.269H89.3422C90.6266 264.269 91.8985 264.522 93.0852 265.013C94.2719 265.504 95.3502 266.224 96.2585 267.132C97.1667 268.04 97.8872 269.118 98.3787 270.304C98.8703 271.49 99.1233 272.761 99.1233 274.045V274.363L73.9939 274.364L73.9934 264.27Z" fill="#343436"/>
<path d="M32.1185 266.813L39.9121 266.812L43.6195 236.766L32.1172 236.767L32.1185 266.813Z" fill="#FFB8B8"/>
<path d="M30.1304 264.27L45.4785 264.269H45.4791C46.7636 264.269 48.0355 264.522 49.2222 265.013C50.4089 265.504 51.4872 266.224 52.3954 267.132C53.3037 268.04 54.0242 269.118 54.5157 270.304C55.0072 271.49 55.2602 272.761 55.2602 274.045V274.363L30.1309 274.364L30.1304 264.27Z" fill="#343436"/>
<path d="M121.842 275.221H1.06026C0.891659 275.221 0.729967 275.154 0.610751 275.035C0.491535 274.916 0.424561 274.754 0.424561 274.586C0.424561 274.417 0.491535 274.256 0.610751 274.137C0.729967 274.018 0.891659 273.951 1.06026 273.951H121.842C122.011 273.951 122.173 274.018 122.292 274.137C122.411 274.256 122.478 274.417 122.478 274.586C122.478 274.754 122.411 274.916 122.292 275.035C122.173 275.154 122.011 275.221 121.842 275.221Z" fill="#4F474A"/>
<path d="M126.725 142.282L29.6882 162.726C26.884 163.313 23.9611 162.765 21.5609 161.201C19.1606 159.637 17.4789 157.186 16.8849 154.384L0.233573 75.426C-0.354213 72.6232 0.194344 69.7017 1.7589 67.3027C3.32345 64.9036 5.77623 63.2228 8.57912 62.629L105.615 42.1856C108.42 41.5981 111.343 42.1464 113.743 43.7102C116.143 45.2739 117.825 47.7255 118.419 50.527L135.07 129.485C135.658 132.288 135.109 135.209 133.545 137.609C131.98 140.008 129.527 141.688 126.725 142.282Z" fill="white"/>
<path d="M126.725 142.282L29.6882 162.726C26.884 163.313 23.9611 162.765 21.5609 161.201C19.1606 159.637 17.4789 157.186 16.8849 154.384L0.233573 75.426C-0.354213 72.6232 0.194344 69.7017 1.7589 67.3027C3.32345 64.9036 5.77623 63.2228 8.57912 62.629L105.615 42.1856C108.42 41.5981 111.343 42.1464 113.743 43.7102C116.143 45.2739 117.825 47.7255 118.419 50.527L135.07 129.485C135.658 132.288 135.109 135.209 133.545 137.609C131.98 140.008 129.527 141.688 126.725 142.282ZM8.84135 63.8724C6.36822 64.3964 4.20401 65.8795 2.82353 67.9963C1.44304 70.1131 0.959003 72.6908 1.47762 75.1639L18.1289 154.122C18.6531 156.594 20.1369 158.757 22.2548 160.137C24.3727 161.517 26.9517 162.001 29.426 161.482L126.462 141.039C128.935 140.515 131.1 139.032 132.48 136.915C133.861 134.798 134.345 132.22 133.826 129.747L117.175 50.7892C116.651 48.3173 115.167 46.1541 113.049 44.7743C110.931 43.3945 108.352 42.9107 105.878 43.4291L8.84135 63.8724Z" fill="#3F3D56"/>
<path d="M99.5863 68.2204L50.6134 78.5379C50.1848 78.6373 49.7345 78.5703 49.3534 78.3506C48.9723 78.1308 48.6889 77.7747 48.5605 77.3541C48.5018 77.1348 48.4884 76.9058 48.5211 76.6811C48.5539 76.4564 48.6321 76.2408 48.751 76.0473C48.8698 75.8538 49.0269 75.6865 49.2126 75.5558C49.3983 75.425 49.6087 75.3334 49.831 75.2865L99.6825 64.7839C101.629 65.8803 101.014 67.9196 99.5857 68.2205L99.5863 68.2204Z" fill="#CCCCCC"/>
<path d="M101.397 76.8063L52.4239 87.1238C51.9954 87.2232 51.545 87.1562 51.1639 86.9365C50.7829 86.7168 50.4995 86.3606 50.3711 85.94C50.3123 85.7207 50.2989 85.4917 50.3317 85.267C50.3644 85.0423 50.4426 84.8267 50.5615 84.6332C50.6804 84.4397 50.8375 84.2725 51.0232 84.1417C51.2089 84.0109 51.4193 83.9193 51.6416 83.8724L101.493 73.3699C103.44 74.4663 102.824 76.5056 101.396 76.8064L101.397 76.8063Z" fill="#CCCCCC"/>
<path d="M42.8682 94.2425L27.9221 97.3913C27.434 97.4936 26.9252 97.3982 26.5074 97.126C26.0896 96.8538 25.7969 96.4271 25.6936 95.9394L21.9759 78.3106C21.8735 77.8227 21.969 77.3142 22.2413 76.8966C22.5136 76.479 22.9406 76.1865 23.4285 76.0832L38.3746 72.9344C38.8627 72.8322 39.3714 72.9277 39.7891 73.1999C40.2069 73.472 40.4996 73.8987 40.6031 74.3863L44.3208 92.0151C44.4232 92.503 44.3277 93.0115 44.0554 93.4291C43.7831 93.8467 43.3561 94.1392 42.8682 94.2425V94.2425Z" fill="#CCCCCC"/>
<path d="M104.962 94.4162L30.2203 110.163C29.7917 110.262 29.3414 110.195 28.9603 109.975C28.5793 109.756 28.2959 109.399 28.1674 108.979C28.1087 108.76 28.0953 108.531 28.1281 108.306C28.1608 108.081 28.239 107.865 28.3579 107.672C28.4768 107.479 28.6339 107.311 28.8195 107.18C29.0052 107.05 29.2157 106.958 29.4379 106.911L105.059 90.9796C107.005 92.076 106.39 94.1153 104.962 94.4162Z" fill="#CCCCCC"/>
<path d="M106.773 103.005L32.0313 118.751C31.6028 118.85 31.1524 118.783 30.7714 118.564C30.3903 118.344 30.1069 117.988 29.9785 117.567C29.9197 117.348 29.9064 117.119 29.9391 116.894C29.9718 116.67 30.05 116.454 30.1689 116.26C30.2878 116.067 30.4449 115.9 30.6306 115.769C30.8163 115.638 31.0267 115.546 31.249 115.5L106.87 99.568C108.816 100.664 108.201 102.704 106.773 103.005Z" fill="#CCCCCC"/>
<path d="M108.583 111.587L33.8414 127.333C33.4128 127.433 32.9625 127.366 32.5814 127.146C32.2003 126.926 31.9169 126.57 31.7885 126.15C31.7298 125.93 31.7164 125.701 31.7492 125.477C31.7819 125.252 31.8601 125.036 31.979 124.843C32.0979 124.649 32.255 124.482 32.4406 124.351C32.6263 124.221 32.8368 124.129 33.059 124.082L108.68 108.151C110.626 109.247 110.011 111.286 108.583 111.587Z" fill="#CCCCCC"/>
<path d="M110.394 120.175L35.6524 135.922C35.2239 136.021 34.7735 135.954 34.3924 135.734C34.0114 135.515 33.728 135.158 33.5996 134.738C33.5408 134.518 33.5274 134.289 33.5602 134.065C33.5929 133.84 33.6711 133.624 33.79 133.431C33.9089 133.237 34.066 133.07 34.2517 132.939C34.4374 132.809 34.6478 132.717 34.8701 132.67L110.491 116.739C112.437 117.835 111.822 119.874 110.394 120.175Z" fill="#CCCCCC"/>
<path d="M112.204 128.759L37.4625 144.505C37.0339 144.604 36.5836 144.537 36.2025 144.318C35.8214 144.098 35.538 143.742 35.4096 143.321C35.3509 143.102 35.3375 142.873 35.3702 142.648C35.403 142.424 35.4812 142.208 35.6001 142.014C35.719 141.821 35.876 141.654 36.0617 141.523C36.2474 141.392 36.4578 141.3 36.6801 141.254L112.301 125.322C114.247 126.418 113.632 128.458 112.204 128.759Z" fill="#CCCCCC"/>
<path d="M20.9553 156.986C21.9092 156.691 22.7869 156.191 23.5266 155.521C24.2663 154.851 24.85 154.027 25.2366 153.107C25.6231 152.187 25.8032 151.193 25.764 150.196C25.7248 149.199 25.4674 148.222 25.0099 147.336L46.0668 88.8379L31.4435 86.2477L15.3434 144.563C13.9037 145.43 12.8322 146.795 12.3319 148.399C11.8316 150.003 11.9374 151.735 12.6291 153.266C13.3208 154.797 14.5505 156.021 16.085 156.707C17.6196 157.393 19.3525 157.492 20.9553 156.986Z" fill="#FFB8B8"/>
<path d="M40.2886 254.719H30.426C30.0389 254.719 29.6559 254.641 29.3 254.489C28.9442 254.336 28.623 254.113 28.3558 253.833C28.0887 253.553 27.8812 253.222 27.7459 252.86C27.6106 252.497 27.5503 252.111 27.5686 251.724L32.2533 151.124L32.5485 151.115L80.1743 149.875L89.4939 250.533C89.5297 250.91 89.4901 251.291 89.3774 251.653C89.2647 252.015 89.0812 252.351 88.8374 252.641C88.5937 252.932 88.2946 253.171 87.9575 253.344C87.6205 253.518 87.2523 253.623 86.8743 253.654L75.7965 254.539C75.1006 254.594 74.4084 254.393 73.8503 253.974C73.2921 253.555 72.9066 252.947 72.7661 252.263L58.5962 180.607C58.5576 180.39 58.4421 180.193 58.2707 180.053C58.0993 179.913 57.8835 179.84 57.6624 179.845H57.6585C57.4366 179.84 57.2203 179.915 57.0492 180.057C56.8781 180.198 56.7635 180.396 56.7264 180.615L43.0954 252.413C42.9663 253.062 42.6161 253.647 42.1044 254.067C41.5927 254.488 40.9511 254.718 40.2886 254.719Z" fill="#343436"/>
<path d="M125.398 89.4495C125.228 89.7574 125.083 90.0783 124.963 90.409L94.3652 97.9982L89.0422 92.4942L79.6816 99.4378L88.1575 110.097C88.8422 110.958 89.788 111.574 90.8527 111.852C91.9175 112.13 93.0437 112.056 94.0625 111.64L127.264 98.0792C128.356 98.8821 129.666 99.3339 131.02 99.3745C132.375 99.4151 133.709 99.0426 134.847 98.3065C135.984 97.5704 136.871 96.5056 137.388 95.2537C137.905 94.0019 138.029 92.6223 137.743 91.2985C137.456 89.9746 136.773 88.7693 135.785 87.8428C134.796 86.9163 133.549 86.3126 132.209 86.1119C130.869 85.9111 129.5 86.123 128.283 86.7192C127.066 87.3154 126.06 88.2678 125.398 89.4495L125.398 89.4495Z" fill="#FFB8B8"/>
<path d="M43.3923 99.2221L28.9541 93.6836C28.5433 93.526 28.1713 93.2818 27.8634 92.9675C27.5556 92.6533 27.3191 92.2764 27.1701 91.8626C27.0211 91.4488 26.9631 91.0077 27.0001 90.5695C27.037 90.1312 27.168 89.7061 27.3841 89.323L34.9584 75.9002C35.7772 73.8042 37.394 72.1182 39.4545 71.2119C41.5149 70.3055 43.8509 70.2528 45.9502 71.0651C48.0495 71.8775 49.741 73.4887 50.6536 75.5456C51.5663 77.6024 51.6258 79.937 50.819 82.0376L47.4781 97.031C47.3823 97.4603 47.1951 97.8639 46.9292 98.2143C46.6633 98.5647 46.3249 98.8537 45.9372 99.0617C45.5494 99.2696 45.1214 99.3916 44.6823 99.4193C44.2431 99.447 43.8031 99.3797 43.3923 99.2221V99.2221Z" fill="#584CF4"/>
<path d="M53.1196 162.913C45.6779 162.913 38.0344 160.958 31.6979 155.177C31.3607 154.872 31.1004 154.491 30.9381 154.066C30.7758 153.641 30.716 153.184 30.7638 152.731C31.442 146.641 34.7319 115.192 32.8791 94.1852C32.5176 90.2613 33.0734 86.3072 34.5026 82.6348C35.9319 78.9624 38.1956 75.6723 41.1149 73.0241C43.9832 70.3819 47.4265 68.4421 51.1733 67.3577C54.92 66.2734 58.8676 66.0741 62.7045 66.7758H62.7047C62.8991 66.8105 63.0935 66.8471 63.2881 66.8843C75.7881 69.3024 84.4732 80.8652 83.4905 93.7806C82.0564 112.626 80.7709 138.117 82.7894 152.533C82.8731 153.122 82.77 153.724 82.4948 154.252C82.2195 154.78 81.7858 155.209 81.2544 155.479C76.6616 157.798 65.1546 162.913 53.1196 162.913Z" fill="#584CF4"/>
<path d="M73.4931 100.345C73.1267 100.101 72.8172 99.7814 72.5858 99.4074C72.3544 99.0333 72.2064 98.6137 72.1521 98.1773L70.2499 82.9347C69.646 80.767 69.9268 78.4484 71.0306 76.4873C72.1345 74.5262 73.9713 73.0826 76.1384 72.473C78.3055 71.8634 80.626 72.1376 82.5911 73.2354C84.5563 74.3332 86.0057 76.1651 86.6217 78.3294L92.8873 92.4101C93.066 92.812 93.1561 93.2476 93.1512 93.6874C93.1464 94.1272 93.0467 94.5608 92.8591 94.9586C92.6715 95.3564 92.4003 95.7091 92.064 95.9928C91.7277 96.2764 91.3342 96.4842 90.9103 96.6021L76.0113 100.746C75.5874 100.864 75.1429 100.89 74.7083 100.82C74.2737 100.751 73.8592 100.589 73.4931 100.345Z" fill="#584CF4"/>
<path d="M58.355 61.4003C66.978 61.4003 73.9684 54.4135 73.9684 45.7948C73.9684 37.1761 66.978 30.1892 58.355 30.1892C49.732 30.1892 42.7417 37.1761 42.7417 45.7948C42.7417 54.4135 49.732 61.4003 58.355 61.4003Z" fill="#FFB8B8"/>
<path d="M52.9044 61.1799C51.4265 61.2073 49.9579 60.9418 48.5834 60.3985C47.9786 60.1656 47.3508 59.9741 46.7471 59.741C41.4158 57.6823 37.9038 52.0072 37.778 46.2961C37.6522 40.5849 40.6113 35.0417 45.0053 31.3886C49.3993 27.7355 55.0906 25.8599 60.7896 25.4262C66.9282 24.9591 73.8406 26.515 77.2708 31.6247C78.1839 32.9848 78.8224 34.635 78.2814 36.2773C78.1193 36.7728 77.8299 37.2172 77.4421 37.5658C75.9102 38.9281 74.383 37.9038 72.8214 37.8133C70.6749 37.6889 68.747 39.4255 68.0541 41.4598C67.3612 43.4941 67.6662 45.7337 68.2257 47.8086C68.6519 49.0572 68.9206 50.3541 69.0256 51.6691C69.0707 52.3286 68.9466 52.9886 68.6651 53.5867C68.3835 54.1847 67.9538 54.701 67.4167 55.0866C66.0754 55.8969 64.314 55.4279 62.9719 54.6189C61.6299 53.8098 60.4702 52.6849 59.0206 52.0896C57.5709 51.4943 55.6233 51.6263 54.7795 52.9464C54.5114 53.4267 54.3299 53.9505 54.2434 54.4937C53.4869 57.9382 53.6608 57.7354 52.9044 61.1799V61.1799Z" fill="#5B5B61"/>
</svg>
