<svg width="1270" height="496" viewBox="0 0 1270 496" fill="none" xmlns="http://www.w3.org/2000/svg">
<circle cx="1085.11" cy="112.097" r="20.5" stroke="#F8BDBD" stroke-opacity="0.38" stroke-width="3"/>
<path d="M247.016 0.344727L242.091 488.417M694.322 4.47611L689.396 492.548M474.108 2.44222L469.183 490.514M919.119 6.55212L914.194 494.624M357.12 1.36167L352.195 489.434M806.721 5.51398L801.795 493.586M584.213 3.45917L579.288 491.531M1031.52 7.59027L1026.59 495.662M150.086 401.131L1138.74 410.262M152.192 192.378L1140.85 201.508M151.122 298.225L1139.78 307.355M153.258 86.5308L1141.91 95.6617" stroke="url(#paint0_radial_20_2403)"/>
<path d="M383.67 407.296C385.67 406.141 388.17 407.584 388.17 409.894L388.17 436.004C388.17 438.314 385.67 439.757 383.67 438.602L361.058 425.547C359.058 424.392 359.058 421.506 361.058 420.351L383.67 407.296Z" fill="#FDD6D0" fill-opacity="0.24"/>
<path d="M1240.71 336.148C1240.81 334.213 1243.33 333.538 1244.38 335.163L1247.84 340.487C1248.31 341.214 1249.2 341.554 1250.03 341.33L1256.17 339.687C1258.04 339.185 1259.46 341.372 1258.24 342.877L1254.24 347.811C1253.7 348.484 1253.65 349.432 1254.12 350.159L1257.58 355.483C1258.63 357.108 1256.99 359.134 1255.18 358.44L1249.26 356.165C1248.45 355.854 1247.53 356.1 1246.98 356.773L1242.99 361.707C1241.77 363.213 1239.34 362.278 1239.44 360.344L1239.77 354.004C1239.82 353.138 1239.3 352.342 1238.49 352.032L1232.56 349.757C1230.75 349.062 1230.89 346.459 1232.76 345.958L1238.89 344.315C1239.73 344.09 1240.33 343.353 1240.37 342.487L1240.71 336.148Z" fill="#584CF4"/>
<path fill-rule="evenodd" clip-rule="evenodd" d="M85.0989 128.857C106.451 116.53 113.766 89.2273 101.439 67.8756C89.1114 46.524 61.8091 39.2083 40.4575 51.5357C19.1058 63.8631 11.7902 91.1654 24.1176 112.517C36.445 133.869 63.7472 141.184 85.0989 128.857ZM85.7459 129.978C107.716 117.293 115.244 89.1992 102.559 67.2286C89.8747 45.2581 61.7811 37.7304 39.8105 50.4151C17.8399 63.0998 10.3123 91.1935 22.997 113.164C35.6817 135.135 63.7753 142.662 85.7459 129.978Z" fill="#585858"/>
<path fill-rule="evenodd" clip-rule="evenodd" d="M78.6291 117.651C93.7919 108.897 98.987 89.5082 90.2328 74.3454C81.4786 59.1826 62.09 53.9875 46.9272 62.7417C31.7645 71.4959 26.5693 90.8845 35.3236 106.047C44.0778 121.21 63.4664 126.405 78.6291 117.651ZM79.2761 118.772C95.0578 109.66 100.465 89.4801 91.3534 73.6984C82.2419 57.9167 62.0619 52.5095 46.2803 61.6211C30.4986 70.7326 25.0914 90.9126 34.203 106.694C43.3145 122.476 63.4944 127.883 79.2761 118.772Z" fill="#585858"/>
<path fill-rule="evenodd" clip-rule="evenodd" d="M72.1594 106.445C81.1332 101.264 84.2079 89.789 79.0268 80.8152C73.8458 71.8413 62.3709 68.7666 53.397 73.9477C44.4231 79.1287 41.3484 90.6036 46.5295 99.5775C51.7106 108.551 63.1855 111.626 72.1594 106.445ZM72.8063 107.566C82.3991 102.027 85.6858 89.761 80.1474 80.1682C74.6091 70.5754 62.3428 67.2887 52.75 72.8271C43.1573 78.3655 39.8705 90.6317 45.4089 100.224C50.9473 109.817 63.2136 113.104 72.8063 107.566Z" fill="#585858"/>
<defs>
<radialGradient id="paint0_radial_20_2403" cx="0" cy="0" r="1" gradientUnits="userSpaceOnUse" gradientTransform="translate(646 248.004) rotate(90.0823) scale(247.659 495.693)">
<stop stop-color="white" stop-opacity="0.42"/>
<stop offset="1" stop-color="white" stop-opacity="0"/>
</radialGradient>
</defs>
</svg>
