<svg width="233" height="304" viewBox="0 0 233 304" fill="none" xmlns="http://www.w3.org/2000/svg">
<path d="M180.504 266.536L173.641 269.546L158.757 244.522L168.885 240.078L180.504 266.536Z" fill="#FFB8B8"/>
<path d="M185.175 272.417L163.047 282.125L162.924 281.846C162.427 280.715 162.158 279.498 162.132 278.264C162.107 277.029 162.324 275.802 162.773 274.652C163.222 273.501 163.893 272.451 164.747 271.559C165.602 270.668 166.625 269.954 167.756 269.458L167.756 269.458L181.271 263.528L185.175 272.417Z" fill="#2A2A35"/>
<path d="M88.3704 274.863H80.8755L77.3102 245.969L88.3717 245.97L88.3704 274.863Z" fill="#FFB8B8"/>
<path d="M90.2814 282.125L66.1155 282.124V281.819C66.1155 280.584 66.3588 279.362 66.8315 278.221C67.3042 277.08 67.997 276.044 68.8704 275.171C69.7439 274.298 70.7808 273.606 71.922 273.133C73.0632 272.661 74.2864 272.417 75.5216 272.417H75.5222L90.2819 272.418L90.2814 282.125Z" fill="#2A2A35"/>
<path d="M190.184 148.874L101.712 198.476C99.1544 199.906 96.1335 200.264 93.3122 199.47C90.4909 198.677 88.0996 196.798 86.663 194.245L46.2626 122.254C44.8317 119.698 44.4738 116.678 45.2674 113.858C46.061 111.038 47.9413 108.648 50.4958 107.212L138.968 57.6106C141.526 56.1804 144.546 55.8226 147.368 56.6159C150.189 57.4091 152.58 59.2885 154.017 61.8418L194.417 133.832C195.848 136.389 196.206 139.408 195.413 142.228C194.619 145.048 192.739 147.438 190.184 148.874Z" fill="white"/>
<path d="M190.184 148.874L101.712 198.476C99.1544 199.906 96.1335 200.264 93.3122 199.47C90.4909 198.677 88.0996 196.798 86.663 194.245L46.2626 122.254C44.8317 119.698 44.4738 116.678 45.2674 113.858C46.061 111.038 47.9413 108.648 50.4958 107.212L138.968 57.6106C141.526 56.1804 144.546 55.8226 147.368 56.6159C150.189 57.4091 152.58 59.2885 154.017 61.8418L194.417 133.832C195.848 136.389 196.206 139.408 195.413 142.228C194.619 145.048 192.739 147.438 190.184 148.874ZM51.132 108.346C48.8781 109.613 47.219 111.722 46.5187 114.21C45.8185 116.698 46.1343 119.362 47.3968 121.618L87.7972 193.609C89.0649 195.862 91.1748 197.52 93.6642 198.22C96.1536 198.92 98.819 198.604 101.076 197.342L189.548 147.74C191.802 146.473 193.461 144.364 194.161 141.876C194.861 139.388 194.546 136.724 193.283 134.468L152.883 62.4777C151.615 60.2248 149.505 58.5665 147.016 57.8666C144.526 57.1667 141.861 57.4824 139.604 58.7443L51.132 108.346Z" fill="#3F3D56"/>
<path d="M141.044 84.8671L96.3932 109.9C96.0052 110.128 95.5452 110.201 95.106 110.103C94.6668 110.004 94.2812 109.743 94.0272 109.372C93.9028 109.176 93.8197 108.956 93.783 108.727C93.7463 108.498 93.7566 108.263 93.8135 108.038C93.8704 107.813 93.9726 107.602 94.1139 107.417C94.2551 107.233 94.4325 107.079 94.6352 106.966L140.087 81.4832C142.322 81.9588 142.345 84.1375 141.043 84.8674L141.044 84.8671Z" fill="#CCCCCC"/>
<path d="M93.6353 127.598L80.0084 135.238C79.5632 135.487 79.0374 135.549 78.5463 135.411C78.0552 135.273 77.6389 134.946 77.3889 134.501L68.3688 118.428C68.1197 117.983 68.0574 117.458 68.1955 116.967C68.3336 116.476 68.661 116.06 69.1057 115.81L82.7326 108.17C83.1779 107.921 83.7036 107.859 84.1947 107.997C84.6857 108.135 85.1019 108.462 85.3521 108.906L94.3722 124.98C94.6213 125.425 94.6836 125.95 94.5455 126.441C94.4073 126.932 94.08 127.348 93.6353 127.598L93.6353 127.598Z" fill="#CCCCCC"/>
<path d="M145.437 92.6952L100.786 117.729C100.399 117.957 99.9385 118.029 99.4993 117.931C99.0601 117.833 98.6746 117.572 98.4206 117.2C98.2962 117.004 98.213 116.785 98.1763 116.555C98.1396 116.326 98.15 116.091 98.2069 115.866C98.2637 115.641 98.3659 115.43 98.5072 115.245C98.6484 115.061 98.8258 114.907 99.0285 114.794L144.48 89.3113C146.715 89.7869 146.739 91.9656 145.437 92.6955L145.437 92.6952Z" fill="#CCCCCC"/>
<path d="M154.302 108.797L86.1572 147.002C85.7693 147.23 85.3092 147.303 84.87 147.204C84.4308 147.106 84.0453 146.845 83.7913 146.474C83.6669 146.278 83.5838 146.058 83.547 145.829C83.5103 145.6 83.5207 145.365 83.5776 145.14C83.6344 144.915 83.7367 144.704 83.8779 144.519C84.0192 144.335 84.1966 144.181 84.3992 144.067L153.346 105.413C155.581 105.888 155.604 108.067 154.302 108.797Z" fill="#CCCCCC"/>
<path d="M158.697 116.627L90.5515 154.833C90.1636 155.061 89.7035 155.133 89.2643 155.035C88.8251 154.937 88.4396 154.676 88.1856 154.304C88.0612 154.108 87.9781 153.889 87.9413 153.659C87.9046 153.43 87.915 153.196 87.9718 152.97C88.0287 152.745 88.1309 152.534 88.2722 152.35C88.4135 152.165 88.5909 152.011 88.7935 151.898L157.74 113.243C159.976 113.719 159.999 115.897 158.697 116.627V116.627Z" fill="#CCCCCC"/>
<path d="M163.088 124.453L94.9431 162.658C94.5552 162.886 94.0951 162.958 93.6559 162.86C93.2167 162.762 92.8312 162.501 92.5772 162.13C92.4528 161.934 92.3697 161.714 92.3329 161.485C92.2962 161.256 92.3066 161.021 92.3634 160.796C92.4203 160.571 92.5225 160.36 92.6638 160.175C92.8051 159.991 92.9825 159.837 93.1851 159.723L162.132 121.068C164.367 121.544 164.39 123.723 163.088 124.453Z" fill="#CCCCCC"/>
<path d="M167.482 132.282L99.3373 170.488C98.9493 170.716 98.4893 170.788 98.0501 170.69C97.6109 170.592 97.2253 170.331 96.9714 169.96C96.847 169.763 96.7638 169.544 96.7271 169.315C96.6903 169.085 96.7007 168.851 96.7576 168.626C96.8145 168.4 96.9167 168.189 97.058 168.005C97.1992 167.82 97.3766 167.667 97.5793 167.553L166.526 128.898C168.761 129.374 168.784 131.553 167.482 132.282H167.482Z" fill="#CCCCCC"/>
<path d="M171.874 140.109L103.729 178.314C103.341 178.542 102.881 178.614 102.442 178.516C102.003 178.418 101.617 178.157 101.363 177.786C101.239 177.59 101.156 177.37 101.119 177.141C101.082 176.911 101.093 176.677 101.149 176.452C101.206 176.227 101.309 176.015 101.45 175.831C101.591 175.647 101.768 175.493 101.971 175.379L170.918 136.724C173.153 137.2 173.176 139.379 171.874 140.109V140.109Z" fill="#CCCCCC"/>
<path d="M159.986 169.436C160.357 168.618 160.544 167.728 160.534 166.83C160.524 165.932 160.317 165.047 159.927 164.237C159.538 163.428 158.976 162.713 158.28 162.144C157.585 161.575 156.773 161.166 155.902 160.944L154.049 139.188L145.136 146.216L148.262 165.798C147.987 167.286 148.267 168.822 149.05 170.116C149.832 171.411 151.062 172.373 152.508 172.822C153.953 173.27 155.512 173.173 156.89 172.549C158.268 171.925 159.37 170.817 159.986 169.436Z" fill="#FFB8B8"/>
<path d="M154.217 158.665L146.815 159.548C146.439 159.593 146.058 159.559 145.695 159.45C145.333 159.341 144.996 159.158 144.708 158.912C144.419 158.667 144.185 158.365 144.018 158.025C143.852 157.685 143.757 157.314 143.741 156.936L142.662 131.977L128.631 93.6658C128.068 92.4771 127.812 91.1668 127.885 89.8539C127.958 88.5409 128.357 87.267 129.048 86.1476C129.392 85.6068 129.785 85.0992 130.223 84.6313C131.087 83.7019 132.163 82.9949 133.358 82.5705C134.554 82.1461 135.835 82.0168 137.092 82.1938C138.386 82.366 139.621 82.8444 140.693 83.5893C141.766 84.3341 142.645 85.324 143.258 86.4766L152.408 105.641C156.236 113.657 158.042 122.487 157.672 131.361L156.64 156.051C156.613 156.697 156.359 157.313 155.922 157.79C155.486 158.268 154.895 158.576 154.253 158.661L154.217 158.665Z" fill="#584CF4"/>
<path d="M161.339 264.986L119.588 171.86C119.513 171.686 119.385 171.539 119.223 171.44C119.06 171.341 118.871 171.295 118.681 171.309C118.492 171.322 118.311 171.394 118.164 171.515C118.017 171.636 117.911 171.799 117.861 171.983L92.4227 261.93C92.2549 262.56 91.8677 263.109 91.3308 263.478C90.7939 263.848 90.1426 264.014 89.4943 263.945L75.6013 262.557C74.8855 262.482 74.2272 262.131 73.7661 261.578C73.305 261.026 73.0773 260.316 73.1315 259.598C77.5505 204.663 84.5165 152.815 105.385 118.874L105.496 118.693L137.062 124.88L179.204 259.01C179.412 259.701 179.341 260.446 179.007 261.085C178.672 261.725 178.101 262.208 177.415 262.432L164.707 266.514C164.056 266.726 163.349 266.686 162.726 266.403C162.103 266.12 161.608 265.615 161.339 264.986Z" fill="#3A3636"/>
<path d="M63.1948 150.023C64.0838 149.892 64.9332 149.567 65.6832 149.072C66.4331 148.577 67.0654 147.924 67.5354 147.158C68.0055 146.393 68.3018 145.533 68.4037 144.641C68.5055 143.748 68.4103 142.844 68.1248 141.993L85.419 128.652L74.6813 124.97L59.9046 138.203C58.5049 138.777 57.3645 139.844 56.6996 141.203C56.0347 142.561 55.8914 144.116 56.2969 145.573C56.7025 147.03 57.6287 148.288 58.9 149.108C60.1713 149.928 61.6994 150.254 63.1948 150.023V150.023Z" fill="#FFB8B8"/>
<path d="M103.445 121.472L103.254 121.432L103.209 121.243C101.186 112.705 101.137 103.388 103.065 93.5517C104.043 88.524 106.765 84.0025 110.75 80.7835C114.736 77.5645 119.73 75.8545 124.854 75.9547C130.413 76.0674 135.719 78.2991 139.686 82.1932C143.653 86.0873 145.981 91.3494 146.194 96.9028C146.838 113.822 139.92 128.49 139.85 128.636L139.747 128.851L103.445 121.472Z" fill="#584CF4"/>
<path d="M72.6407 139.962C72.0777 140.295 71.4142 140.415 70.77 140.302C70.1259 140.188 69.5437 139.848 69.1285 139.343L64.3776 133.602C64.1362 133.31 63.9576 132.972 63.8532 132.608C63.7487 132.244 63.7205 131.862 63.7704 131.487C63.8204 131.112 63.9473 130.751 64.1432 130.427C64.3391 130.103 64.5999 129.823 64.9091 129.604L85.316 115.18L109.938 82.6404C110.633 81.524 111.597 80.5989 112.74 79.9491C113.884 79.2992 115.172 78.9452 116.488 78.9191C117.128 78.9151 117.768 78.9709 118.399 79.0857C119.648 79.3077 120.826 79.8284 121.83 80.6034C122.835 81.3784 123.637 82.3847 124.169 83.5365C124.725 84.7175 124.991 86.014 124.946 87.3184C124.9 88.6229 124.544 89.8977 123.907 91.0369L105.675 120.549L105.635 120.613L72.6407 139.962Z" fill="#584CF4"/>
<path d="M120.753 71.1702C129.046 71.1702 135.768 64.4511 135.768 56.1627C135.768 47.8742 129.046 41.1552 120.753 41.1552C112.461 41.1552 105.739 47.8742 105.739 56.1627C105.739 64.4511 112.461 71.1702 120.753 71.1702Z" fill="#FFB8B8"/>
<path d="M123.438 55.2316C122.332 53.4121 119.89 52.898 117.769 53.1056C115.649 53.3132 113.587 54.0581 111.457 54.0415C105.542 53.9957 100.976 46.7897 103.463 41.4251C105.502 37.0255 110.596 35.0936 115.204 33.5773C124.866 30.3982 135.964 27.3437 144.731 32.4983C147.525 34.1896 149.816 36.5957 151.369 39.4682C152.921 42.3406 153.678 45.5752 153.561 48.8379C153.364 52.8946 151.81 57.0616 153.124 60.9047C154.641 65.3383 159.45 67.7171 163.994 68.8677C171.96 70.8849 180.359 70.5599 188.375 72.3691C196.39 74.1783 204.604 78.9822 206.765 86.9068C208.184 92.112 206.703 97.7155 204.251 102.522C201.749 107.425 198.271 111.766 194.032 115.279C189.792 118.792 184.88 121.403 179.596 122.953C174.311 124.502 168.766 124.957 163.3 124.289C157.834 123.621 152.561 121.845 147.806 119.07C138.115 113.414 131.119 103.855 126.948 93.4428C124.583 87.3689 122.918 81.0454 121.985 74.5948C121.051 68.5563 121.844 62.4541 123.536 56.5826C123.616 56.3632 123.648 56.1295 123.632 55.8966C123.615 55.6638 123.549 55.4372 123.438 55.2316Z" fill="#444453"/>
</svg>
