<svg width="52" height="53" viewBox="0 0 52 53" fill="none" xmlns="http://www.w3.org/2000/svg">
<g opacity="0.3">
<path fill-rule="evenodd" clip-rule="evenodd" d="M10.4166 6.67554C7.34424 6.67554 4.85361 9.16617 4.85361 12.2385C4.85361 12.2743 4.85395 12.31 4.85462 12.3456H4.75988V41.7381C4.69595 43.1102 5.12454 44.5095 6.07201 45.6489C8.08615 48.071 11.6824 48.4017 14.1045 46.3876C14.3081 46.2182 14.497 46.0377 14.6709 45.8477L25.3362 37.0573L35.8905 45.9614C36.9279 47.0369 38.3839 47.7058 39.9961 47.7058C43.1116 47.7058 45.6437 45.208 45.699 42.1057H45.6998V42.039L45.7 42.002L45.6998 41.9649V12.6685C45.7107 12.5266 45.7162 12.3832 45.7162 12.2385C45.7162 9.16617 43.2256 6.67554 40.1532 6.67554H10.4166ZM14.302 27.7847L20.8152 33.2576L10.5674 41.7039V36.3873L10.5678 36.3507L10.5703 36.3491L10.5703 36.2992L10.5674 36.2991V25.8931H10.5586V12.5419H39.8907V17.8015H39.8923V41.7394L35.7477 38.2427L35.7552 38.1877L35.724 38.2227L22.955 27.4502L22.9524 27.4534C21.8161 26.5299 20.3653 25.979 18.7868 25.986C17.0486 25.9937 15.4713 26.6764 14.302 27.7847Z" fill="white"/>
<path d="M25.402 37.0276L20.8389 33.2942L15.1351 38.0647L19.5944 41.7981L25.402 37.0276Z" fill="url(#paint0_linear_20_2467)" fill-opacity="0.5"/>
</g>
<defs>
<linearGradient id="paint0_linear_20_2467" x1="23.8676" y1="35.399" x2="16.9037" y2="39.9381" gradientUnits="userSpaceOnUse">
<stop/>
<stop offset="0.503424" stop-opacity="0"/>
</linearGradient>
</defs>
</svg>
