<svg width="87" height="90" viewBox="0 0 87 90" fill="none" xmlns="http://www.w3.org/2000/svg">
<path fill-rule="evenodd" clip-rule="evenodd" d="M17.5431 11.2426C12.3688 11.2426 8.17421 15.4372 8.17421 20.6115C8.17421 20.6717 8.17478 20.7318 8.17591 20.7917H8.01634V70.293C7.90862 72.6039 8.63042 74.9605 10.2262 76.8795C13.6183 80.9587 19.675 81.5157 23.7542 78.1236C24.0969 77.8386 24.4148 77.5348 24.7075 77.2149L42.6701 62.41L60.4454 77.4061C62.1925 79.2172 64.6446 80.3437 67.3597 80.3437C72.6067 80.3437 76.8711 76.137 76.9643 70.9123H76.9656V70.8052L76.9658 70.7375L76.9656 70.6699V21.336C76.9839 21.0969 76.9932 20.8553 76.9932 20.6115C76.9932 15.4372 72.7986 11.2426 67.6243 11.2426H17.5431ZM24.0866 46.7935L35.0559 56.0109L17.7971 70.2358V61.2809L17.7978 61.2199L17.802 61.2173V61.1332L17.7971 61.1331V43.6079H17.7824V21.1225H67.1822V29.9804H67.1848V70.2953L60.2046 64.4064L60.2173 64.3138C60.1997 64.3334 60.1821 64.353 60.1647 64.3727L38.6598 46.2301L38.6552 46.2355C36.7415 44.6802 34.2982 43.7524 31.6397 43.7642C28.7124 43.7772 26.0559 44.927 24.0866 46.7935Z" fill="white"/>
<path d="M42.7806 62.3604L35.0957 56.0728L25.4896 64.107L32.9998 70.3946L42.7806 62.3604Z" fill="url(#paint0_linear_20_2016)" fill-opacity="0.5"/>
<defs>
<linearGradient id="paint0_linear_20_2016" x1="40.1966" y1="59.6175" x2="28.4682" y2="67.2621" gradientUnits="userSpaceOnUse">
<stop/>
<stop offset="0.503424" stop-opacity="0"/>
</linearGradient>
</defs>
</svg>
