<svg width="789" height="648" viewBox="0 0 789 648" fill="none" xmlns="http://www.w3.org/2000/svg">
<g opacity="0.05">
<path fill-rule="evenodd" clip-rule="evenodd" d="M160.588 -41.0876C113.223 -41.0876 74.8266 -2.69121 74.8266 44.6732C74.8266 45.2243 74.8318 45.7742 74.8422 46.3229H73.3797V499.445C72.3938 520.599 79.0009 542.171 93.608 559.737C124.659 597.077 180.1 602.175 217.44 571.125C220.577 568.516 223.487 565.735 226.166 562.808L390.593 427.286L553.307 564.56C569.299 581.137 591.744 591.447 616.597 591.447C664.626 591.447 703.661 552.94 704.515 505.115H704.527V504.149C704.528 503.938 704.529 503.727 704.529 503.515C704.529 503.304 704.528 503.092 704.527 502.881V51.3028C704.694 49.1149 704.779 46.904 704.779 44.6732C704.779 -2.69121 666.383 -41.0876 619.018 -41.0876H160.588ZM220.485 284.337L320.894 368.71L162.911 498.922V416.928L162.916 416.393L162.955 416.368L162.955 415.599L162.911 415.598V255.177H162.776V49.3507H614.969V130.434H614.996V499.467L551.1 445.562L551.216 444.715C551.055 444.894 550.895 445.073 550.735 445.253L353.884 279.18L353.843 279.229C336.325 264.992 313.959 256.5 289.625 256.608C262.828 256.726 238.511 267.251 220.485 284.337Z" fill="white"/>
<path d="M391.605 426.832L321.258 369.277L233.327 442.82L302.073 500.376L391.605 426.832Z" fill="url(#paint0_linear_20_1985)" fill-opacity="0.5"/>
</g>
<defs>
<linearGradient id="paint0_linear_20_1985" x1="367.951" y1="401.724" x2="260.593" y2="471.702" gradientUnits="userSpaceOnUse">
<stop/>
<stop offset="0.503424" stop-opacity="0"/>
</linearGradient>
</defs>
</svg>
