<svg width="351" height="694" viewBox="0 0 351 694" fill="none" xmlns="http://www.w3.org/2000/svg">
<path fill-rule="evenodd" clip-rule="evenodd" d="M2.00003 51.3083C2.00003 23.4578 25.1098 0.880493 53.6171 0.880493H295.884C324.391 0.880493 347.501 23.4578 347.501 51.3084V209.912H349.166C350.086 209.912 350.831 210.64 350.831 211.539V290.434C350.831 291.332 350.086 292.061 349.166 292.061H347.501V643.429C347.501 671.28 324.391 693.857 295.884 693.857H53.6171C25.1098 693.857 2.00003 671.28 2.00003 643.429V311.581C1.08044 311.581 0.334961 310.853 0.334961 309.954V260.34C0.334961 259.442 1.08044 258.713 2.00003 258.713V244.886C1.08044 244.886 0.334961 244.158 0.334961 243.26V193.645C0.334961 192.747 1.08044 192.018 2.00003 192.018V170.058C1.08044 170.058 0.334961 169.33 0.334961 168.431V144.844C0.334961 143.945 1.08044 143.217 2.00003 143.217V51.3083Z" fill="#8F86EC"/>
<mask id="mask0_20_2583" style="mask-type:alpha" maskUnits="userSpaceOnUse" x="0" y="0" width="351" height="694">
<path fill-rule="evenodd" clip-rule="evenodd" d="M2.00027 51.3083C2.00027 23.4578 25.11 0.880493 53.6173 0.880493H295.884C324.392 0.880493 347.501 23.4578 347.501 51.3084V209.912H349.167C350.086 209.912 350.832 210.64 350.832 211.539V290.434C350.832 291.332 350.086 292.061 349.167 292.061H347.501V643.429C347.501 671.28 324.392 693.857 295.884 693.857H53.6173C25.11 693.857 2.00027 671.28 2.00027 643.429V311.581C1.08068 311.581 0.335205 310.853 0.335205 309.954V260.34C0.335205 259.442 1.08068 258.713 2.00027 258.713V244.886C1.08068 244.886 0.335205 244.158 0.335205 243.26V193.645C0.335205 192.747 1.08068 192.018 2.00027 192.018V170.058C1.08068 170.058 0.335205 169.33 0.335205 168.431V144.844C0.335205 143.945 1.08068 143.217 2.00027 143.217V51.3083Z" fill="#76D7FA"/>
</mask>
<g mask="url(#mask0_20_2583)">
<g style="mix-blend-mode:overlay" opacity="0.5">
<rect x="0.335205" y="0.880493" width="351.329" height="692.976" fill="url(#paint0_radial_20_2583)"/>
</g>
<g style="mix-blend-mode:overlay" opacity="0.4">
<path fill-rule="evenodd" clip-rule="evenodd" d="M294.219 5.76062H55.2823C28.6142 5.76062 6.99537 26.8814 6.99537 52.9351V641.802C6.99537 667.856 28.6142 688.977 55.2823 688.977H294.219C320.887 688.977 342.506 667.856 342.506 641.802V52.9351C342.506 26.8813 320.887 5.76062 294.219 5.76062ZM55.2823 4.94727C28.1544 4.94727 6.16284 26.4321 6.16284 52.9351V641.802C6.16284 668.305 28.1544 689.79 55.2823 689.79H294.219C321.347 689.79 343.339 668.305 343.339 641.802V52.9351C343.339 26.4321 321.347 4.94727 294.219 4.94727H55.2823Z" fill="url(#paint1_radial_20_2583)"/>
</g>
<g style="mix-blend-mode:overlay" opacity="0.3">
<path fill-rule="evenodd" clip-rule="evenodd" d="M294.219 5.76062H55.2823C28.6142 5.76062 6.99537 26.8814 6.99537 52.9351V641.802C6.99537 667.856 28.6142 688.977 55.2823 688.977H294.219C320.887 688.977 342.506 667.856 342.506 641.802V52.9351C342.506 26.8813 320.887 5.76062 294.219 5.76062ZM55.2823 4.94727C28.1544 4.94727 6.16284 26.4321 6.16284 52.9351V641.802C6.16284 668.305 28.1544 689.79 55.2823 689.79H294.219C321.347 689.79 343.339 668.305 343.339 641.802V52.9351C343.339 26.4321 321.347 4.94727 294.219 4.94727H55.2823Z" fill="url(#paint2_linear_20_2583)"/>
</g>
</g>
<g style="mix-blend-mode:overlay">
<path d="M350.831 290.434C350.831 291.332 350.235 292.061 349.499 292.061L347.501 292.061L347.501 209.912L349.499 209.912C350.235 209.912 350.831 210.64 350.831 211.539L350.831 290.434Z" fill="url(#paint3_linear_20_2583)" fill-opacity="0.3"/>
<path d="M350.831 290.434C350.831 291.332 350.235 292.061 349.499 292.061L347.501 292.061L347.501 209.912L349.499 209.912C350.235 209.912 350.831 210.64 350.831 211.539L350.831 290.434Z" fill="url(#paint4_linear_20_2583)" fill-opacity="0.3"/>
<path d="M0.334961 260.34C0.334961 259.442 1.08044 258.713 2.00003 258.713V311.581C1.08044 311.581 0.334961 310.853 0.334961 309.954V260.34Z" fill="url(#paint5_linear_20_2583)" fill-opacity="0.3"/>
<path d="M0.334961 260.34C0.334961 259.442 1.08044 258.713 2.00003 258.713V311.581C1.08044 311.581 0.334961 310.853 0.334961 309.954V260.34Z" fill="url(#paint6_linear_20_2583)" fill-opacity="0.3"/>
<path d="M0.334961 193.645C0.334961 192.747 1.08044 192.018 2.00003 192.018V244.886C1.08044 244.886 0.334961 244.158 0.334961 243.26V193.645Z" fill="url(#paint7_linear_20_2583)" fill-opacity="0.3"/>
<path d="M0.334961 193.645C0.334961 192.747 1.08044 192.018 2.00003 192.018V244.886C1.08044 244.886 0.334961 244.158 0.334961 243.26V193.645Z" fill="url(#paint8_linear_20_2583)" fill-opacity="0.3"/>
<path d="M0.334961 144.844C0.334961 143.945 1.08044 143.217 2.00003 143.217V170.058C1.08044 170.058 0.334961 169.329 0.334961 168.431V144.844Z" fill="url(#paint9_linear_20_2583)" fill-opacity="0.3"/>
<path d="M0.334961 144.844C0.334961 143.945 1.08044 143.217 2.00003 143.217V170.058C1.08044 170.058 0.334961 169.329 0.334961 168.431V144.844Z" fill="url(#paint10_linear_20_2583)" fill-opacity="0.3"/>
</g>
<path opacity="0.5" d="M146.028 5.76074H205.138V7.38745C205.138 9.18426 203.647 10.6409 201.808 10.6409H149.358C147.519 10.6409 146.028 9.18426 146.028 7.38745V5.76074Z" fill="url(#paint11_linear_20_2583)"/>
<g style="mix-blend-mode:soft-light">
<path fill-rule="evenodd" clip-rule="evenodd" d="M204.306 6.57397H146.861V7.38732C146.861 8.73493 147.979 9.82738 149.359 9.82738H201.808C203.188 9.82738 204.306 8.73493 204.306 7.38732V6.57397ZM146.029 5.76062V7.38732C146.029 9.18413 147.52 10.6407 149.359 10.6407H201.808C203.647 10.6407 205.138 9.18413 205.138 7.38732V5.76062H146.029Z" fill="url(#paint12_linear_20_2583)"/>
</g>
<g style="mix-blend-mode:lighten" opacity="0.1">
<path d="M136.871 25.2811C136.871 29.3239 133.516 32.6013 129.378 32.6013C125.24 32.6013 121.885 29.3239 121.885 25.2811C121.885 21.2383 125.24 17.9609 129.378 17.9609C133.516 17.9609 136.871 21.2383 136.871 25.2811Z" fill="url(#paint13_linear_20_2583)"/>
</g>
<path opacity="0.5" d="M133.833 25.359C133.833 27.6479 131.904 29.5035 129.524 29.5035C127.144 29.5035 125.215 27.6479 125.215 25.359C125.215 23.07 127.144 21.2144 129.524 21.2144C131.904 21.2144 133.833 23.07 133.833 25.359Z" fill="url(#paint14_linear_20_2583)"/>
<g style="mix-blend-mode:soft-light">
<path fill-rule="evenodd" clip-rule="evenodd" d="M129.524 28.9495C131.585 28.9495 133.257 27.342 133.257 25.359C133.257 23.3759 131.585 21.7684 129.524 21.7684C127.462 21.7684 125.791 23.3759 125.791 25.359C125.791 27.342 127.462 28.9495 129.524 28.9495ZM129.524 29.5035C131.904 29.5035 133.833 27.6479 133.833 25.359C133.833 23.07 131.904 21.2144 129.524 21.2144C127.144 21.2144 125.215 23.07 125.215 25.359C125.215 27.6479 127.144 29.5035 129.524 29.5035Z" fill="url(#paint15_linear_20_2583)"/>
</g>
<mask id="mask1_20_2583" style="mask-type:alpha" maskUnits="userSpaceOnUse" x="18" y="17" width="313" height="661">
<path fill-rule="evenodd" clip-rule="evenodd" d="M53.617 17.1476C34.3056 17.1476 18.6506 32.4419 18.6506 51.3084V643.429C18.6506 662.296 34.3056 677.59 53.617 677.59H295.884C315.195 677.59 330.85 662.296 330.85 643.429V51.3084C330.85 32.4419 315.195 17.1476 295.884 17.1476H243.365C240.104 17.1476 239.272 19.1782 239.272 22.3182C239.272 32.2649 236.774 41.9548 221.67 41.9548H127.831C112.727 41.9548 110.229 32.2649 110.229 22.3182C110.229 19.1782 109.397 17.1476 106.137 17.1476H53.617Z" fill="#C4C4C4"/>
</mask>
<g mask="url(#mask1_20_2583)">
<g clip-path="url(#clip0_20_2583)">
<rect x="18.6506" y="17.1476" width="312.2" height="660.442" rx="3.33013" fill="url(#paint16_linear_20_2583)"/>
</g>
</g>
<defs>
<radialGradient id="paint0_radial_20_2583" cx="0" cy="0" r="1" gradientUnits="userSpaceOnUse" gradientTransform="translate(298.597 133.653) rotate(119.964) scale(773.535 870.103)">
<stop offset="0.05832" stop-opacity="0"/>
<stop offset="1"/>
</radialGradient>
<radialGradient id="paint1_radial_20_2583" cx="0" cy="0" r="1" gradientUnits="userSpaceOnUse" gradientTransform="translate(343.339 125.121) rotate(156.897) scale(351.261 758.954)">
<stop stop-color="#636363"/>
<stop offset="1"/>
</radialGradient>
<linearGradient id="paint2_linear_20_2583" x1="179.781" y1="153.117" x2="343.128" y2="124.446" gradientUnits="userSpaceOnUse">
<stop stop-color="#636363" stop-opacity="0"/>
<stop offset="1" stop-color="#3D3D3D"/>
</linearGradient>
<linearGradient id="paint3_linear_20_2583" x1="347.501" y1="262.479" x2="350.831" y2="262.479" gradientUnits="userSpaceOnUse">
<stop/>
<stop offset="1" stop-color="white"/>
</linearGradient>
<linearGradient id="paint4_linear_20_2583" x1="349.166" y1="292.061" x2="349.166" y2="209.912" gradientUnits="userSpaceOnUse">
<stop/>
<stop offset="0.10159" stop-opacity="0"/>
<stop offset="0.890418" stop-opacity="0"/>
<stop offset="1"/>
</linearGradient>
<linearGradient id="paint5_linear_20_2583" x1="2.57736" y1="277.751" x2="0.334961" y2="277.751" gradientUnits="userSpaceOnUse">
<stop/>
<stop offset="1" stop-color="white"/>
</linearGradient>
<linearGradient id="paint6_linear_20_2583" x1="1.16749" y1="258.713" x2="1.16749" y2="311.581" gradientUnits="userSpaceOnUse">
<stop/>
<stop offset="0.10159" stop-opacity="0"/>
<stop offset="0.890418" stop-opacity="0"/>
<stop offset="1"/>
</linearGradient>
<linearGradient id="paint7_linear_20_2583" x1="2.57736" y1="211.056" x2="0.334961" y2="211.056" gradientUnits="userSpaceOnUse">
<stop/>
<stop offset="1" stop-color="white"/>
</linearGradient>
<linearGradient id="paint8_linear_20_2583" x1="1.16749" y1="192.018" x2="1.16749" y2="244.886" gradientUnits="userSpaceOnUse">
<stop/>
<stop offset="0.10159" stop-opacity="0"/>
<stop offset="0.890418" stop-opacity="0"/>
<stop offset="1"/>
</linearGradient>
<linearGradient id="paint9_linear_20_2583" x1="2.57736" y1="152.883" x2="0.334961" y2="152.883" gradientUnits="userSpaceOnUse">
<stop/>
<stop offset="1" stop-color="white"/>
</linearGradient>
<linearGradient id="paint10_linear_20_2583" x1="1.16749" y1="143.217" x2="1.16749" y2="170.058" gradientUnits="userSpaceOnUse">
<stop/>
<stop offset="0.10159" stop-opacity="0"/>
<stop offset="0.890418" stop-opacity="0"/>
<stop offset="1"/>
</linearGradient>
<linearGradient id="paint11_linear_20_2583" x1="175.583" y1="5.76074" x2="175.583" y2="10.6409" gradientUnits="userSpaceOnUse">
<stop stop-color="#121212"/>
<stop offset="1" stop-color="#585858"/>
</linearGradient>
<linearGradient id="paint12_linear_20_2583" x1="172.144" y1="10.6407" x2="172.144" y2="8.60735" gradientUnits="userSpaceOnUse">
<stop stop-color="#2A2A2A"/>
<stop offset="1" stop-opacity="0"/>
</linearGradient>
<linearGradient id="paint13_linear_20_2583" x1="129.378" y1="17.9609" x2="129.378" y2="32.6013" gradientUnits="userSpaceOnUse">
<stop stop-color="white"/>
<stop offset="1" stop-color="white" stop-opacity="0"/>
</linearGradient>
<linearGradient id="paint14_linear_20_2583" x1="129.524" y1="21.2144" x2="129.524" y2="29.5035" gradientUnits="userSpaceOnUse">
<stop stop-color="#121212"/>
<stop offset="1" stop-color="#464646"/>
</linearGradient>
<linearGradient id="paint15_linear_20_2583" x1="129.077" y1="29.6007" x2="129.077" y2="21.29" gradientUnits="userSpaceOnUse">
<stop stop-color="#2A2A2A"/>
<stop offset="0.493053" stop-opacity="0"/>
</linearGradient>
<linearGradient id="paint16_linear_20_2583" x1="309.621" y1="17.1476" x2="2.54436" y2="867.003" gradientUnits="userSpaceOnUse">
<stop stop-color="white"/>
<stop offset="1" stop-color="#9AC2E5"/>
</linearGradient>
<clipPath id="clip0_20_2583">
<rect x="18.6506" y="17.1476" width="312.2" height="660.442" rx="3.33013" fill="white"/>
</clipPath>
</defs>
</svg>
