<svg width="419" height="387" viewBox="0 0 419 387" fill="none" xmlns="http://www.w3.org/2000/svg">
<rect x="1.5" y="0.5" width="351" height="386" rx="29.5" fill="url(#paint0_linear_20_1731)"/>
<rect x="31" y="118" width="292" height="93" rx="20" fill="#2E7964" fill-opacity="0.5"/>
<g filter="url(#filter0_d_20_1731)">
<path fill-rule="evenodd" clip-rule="evenodd" d="M49.8963 44.1642C48.754 44.1642 47.8247 45.0935 47.8247 46.2358C47.8247 47.378 48.754 48.3073 49.8963 48.3073C51.0385 48.3073 51.9678 47.378 51.9678 46.2358C51.9678 45.0935 51.0385 44.1642 49.8963 44.1642ZM49.8964 41.34C52.6006 41.34 54.7928 43.5322 54.7928 46.2364C54.7928 48.9406 52.6006 51.1328 49.8964 51.1328C47.1922 51.1328 45 48.9406 45 46.2364C45 43.5322 47.1922 41.34 49.8964 41.34Z" fill="#35383F"/>
<path d="M63.585 52.208C62.9183 52.208 62.321 52.0587 61.793 51.76C61.265 51.456 60.8116 51.0373 60.433 50.504C60.0543 49.9707 59.7663 49.3547 59.569 48.656C59.3716 47.952 59.273 47.2 59.273 46.4C59.273 45.6 59.3716 44.848 59.569 44.144C59.7663 43.44 60.0543 42.824 60.433 42.296C60.8116 41.7627 61.265 41.3467 61.793 41.048C62.321 40.744 62.9183 40.592 63.585 40.592C64.2463 40.592 64.841 40.744 65.369 41.048C65.9023 41.3467 66.353 41.7627 66.721 42.296C67.0943 42.824 67.3796 43.44 67.577 44.144C67.7796 44.848 67.881 45.6 67.881 46.4C67.881 47.2 67.7796 47.952 67.577 48.656C67.3796 49.3547 67.0943 49.9707 66.721 50.504C66.353 51.0373 65.9023 51.456 65.369 51.76C64.841 52.0587 64.2463 52.208 63.585 52.208ZM63.585 50.864C64.2516 50.864 64.809 50.6587 65.257 50.248C65.7103 49.832 66.049 49.2853 66.273 48.608C66.497 47.9307 66.609 47.1947 66.609 46.4C66.609 45.5627 66.4916 44.808 66.257 44.136C66.0276 43.4587 65.6863 42.9227 65.233 42.528C64.785 42.1333 64.2356 41.936 63.585 41.936C63.073 41.936 62.625 42.056 62.241 42.296C61.8623 42.536 61.5476 42.864 61.297 43.28C61.0463 43.696 60.857 44.1733 60.729 44.712C60.6063 45.2453 60.545 45.808 60.545 46.4C60.545 47.1947 60.6596 47.9333 60.889 48.616C61.1183 49.2933 61.457 49.8373 61.905 50.248C62.3583 50.6587 62.9183 50.864 63.585 50.864ZM73.3535 52.208C72.6868 52.208 72.0788 52.056 71.5295 51.752C70.9855 51.448 70.5508 51.0427 70.2255 50.536C69.9055 50.024 69.7455 49.4587 69.7455 48.84C69.7455 48.264 69.8975 47.736 70.2015 47.256C70.5055 46.7707 70.9028 46.3867 71.3935 46.104C70.9935 45.848 70.6628 45.5093 70.4015 45.088C70.1455 44.6613 70.0175 44.2 70.0175 43.704C70.0175 43.128 70.1668 42.6053 70.4655 42.136C70.7695 41.6667 71.1721 41.2933 71.6735 41.016C72.1801 40.7333 72.7401 40.592 73.3535 40.592C73.9668 40.592 74.5241 40.7333 75.0255 41.016C75.5321 41.2933 75.9348 41.6667 76.2335 42.136C76.5375 42.6053 76.6895 43.128 76.6895 43.704C76.6895 44.2 76.5615 44.6613 76.3055 45.088C76.0495 45.5093 75.7161 45.848 75.3055 46.104C75.8121 46.3867 76.2148 46.7707 76.5135 47.256C76.8175 47.736 76.9695 48.264 76.9695 48.84C76.9695 49.4533 76.8068 50.016 76.4815 50.528C76.1561 51.04 75.7188 51.448 75.1695 51.752C74.6255 52.056 74.0201 52.208 73.3535 52.208ZM73.3535 50.864C73.7588 50.864 74.1241 50.7733 74.4495 50.592C74.7801 50.4107 75.0441 50.168 75.2415 49.864C75.4388 49.5547 75.5375 49.2133 75.5375 48.84C75.5375 48.4613 75.4388 48.12 75.2415 47.816C75.0441 47.512 74.7801 47.2693 74.4495 47.088C74.1241 46.9067 73.7588 46.816 73.3535 46.816C72.9535 46.816 72.5881 46.9067 72.2575 47.088C71.9268 47.2693 71.6628 47.512 71.4655 47.816C71.2681 48.12 71.1695 48.4613 71.1695 48.84C71.1695 49.2133 71.2681 49.5547 71.4655 49.864C71.6628 50.168 71.9268 50.4107 72.2575 50.592C72.5881 50.7733 72.9535 50.864 73.3535 50.864ZM73.3535 45.472C73.7055 45.472 74.0255 45.392 74.3135 45.232C74.6015 45.072 74.8308 44.8587 75.0015 44.592C75.1775 44.3253 75.2655 44.0293 75.2655 43.704C75.2655 43.3733 75.1775 43.0773 75.0015 42.816C74.8308 42.5493 74.6015 42.336 74.3135 42.176C74.0255 42.016 73.7055 41.936 73.3535 41.936C73.0015 41.936 72.6815 42.016 72.3935 42.176C72.1055 42.336 71.8735 42.5493 71.6975 42.816C71.5268 43.0773 71.4415 43.3733 71.4415 43.704C71.4415 44.0293 71.5268 44.3253 71.6975 44.592C71.8735 44.8587 72.1055 45.072 72.3935 45.232C72.6815 45.392 73.0015 45.472 73.3535 45.472ZM79.7235 45.472C79.5208 45.472 79.3475 45.4 79.2035 45.256C79.0648 45.112 78.9955 44.936 78.9955 44.728C78.9955 44.5307 79.0648 44.36 79.2035 44.216C79.3475 44.072 79.5208 44 79.7235 44C79.9315 44 80.1075 44.072 80.2515 44.216C80.3955 44.36 80.4675 44.5307 80.4675 44.728C80.4675 44.936 80.3955 45.112 80.2515 45.256C80.1075 45.4 79.9315 45.472 79.7235 45.472ZM79.7235 52.208C79.5208 52.208 79.3475 52.136 79.2035 51.992C79.0648 51.848 78.9955 51.672 78.9955 51.464C78.9955 51.2667 79.0648 51.096 79.2035 50.952C79.3475 50.808 79.5208 50.736 79.7235 50.736C79.9315 50.736 80.1075 50.808 80.2515 50.952C80.3955 51.096 80.4675 51.2667 80.4675 51.464C80.4675 51.672 80.3955 51.848 80.2515 51.992C80.1075 52.136 79.9315 52.208 79.7235 52.208ZM86.9756 52.208C86.3089 52.208 85.7116 52.0587 85.1836 51.76C84.6556 51.456 84.2023 51.0373 83.8236 50.504C83.4449 49.9707 83.1569 49.3547 82.9596 48.656C82.7623 47.952 82.6636 47.2 82.6636 46.4C82.6636 45.6 82.7623 44.848 82.9596 44.144C83.1569 43.44 83.4449 42.824 83.8236 42.296C84.2023 41.7627 84.6556 41.3467 85.1836 41.048C85.7116 40.744 86.3089 40.592 86.9756 40.592C87.6369 40.592 88.2316 40.744 88.7596 41.048C89.2929 41.3467 89.7436 41.7627 90.1116 42.296C90.4849 42.824 90.7703 43.44 90.9676 44.144C91.1703 44.848 91.2716 45.6 91.2716 46.4C91.2716 47.2 91.1703 47.952 90.9676 48.656C90.7703 49.3547 90.4849 49.9707 90.1116 50.504C89.7436 51.0373 89.2929 51.456 88.7596 51.76C88.2316 52.0587 87.6369 52.208 86.9756 52.208ZM86.9756 50.864C87.6423 50.864 88.1996 50.6587 88.6476 50.248C89.1009 49.832 89.4396 49.2853 89.6636 48.608C89.8876 47.9307 89.9996 47.1947 89.9996 46.4C89.9996 45.5627 89.8823 44.808 89.6476 44.136C89.4183 43.4587 89.0769 42.9227 88.6236 42.528C88.1756 42.1333 87.6263 41.936 86.9756 41.936C86.4636 41.936 86.0156 42.056 85.6316 42.296C85.2529 42.536 84.9383 42.864 84.6876 43.28C84.4369 43.696 84.2476 44.1733 84.1196 44.712C83.9969 45.2453 83.9356 45.808 83.9356 46.4C83.9356 47.1947 84.0503 47.9333 84.2796 48.616C84.5089 49.2933 84.8476 49.8373 85.2956 50.248C85.7489 50.6587 86.3089 50.864 86.9756 50.864ZM97.0693 52.208C96.4027 52.208 95.8053 52.0587 95.2773 51.76C94.7493 51.456 94.296 51.0373 93.9173 50.504C93.5387 49.9707 93.2507 49.3547 93.0533 48.656C92.856 47.952 92.7573 47.2 92.7573 46.4C92.7573 45.6 92.856 44.848 93.0533 44.144C93.2507 43.44 93.5387 42.824 93.9173 42.296C94.296 41.7627 94.7493 41.3467 95.2773 41.048C95.8053 40.744 96.4027 40.592 97.0693 40.592C97.7307 40.592 98.3253 40.744 98.8533 41.048C99.3867 41.3467 99.8373 41.7627 100.205 42.296C100.579 42.824 100.864 43.44 101.061 44.144C101.264 44.848 101.365 45.6 101.365 46.4C101.365 47.2 101.264 47.952 101.061 48.656C100.864 49.3547 100.579 49.9707 100.205 50.504C99.8373 51.0373 99.3867 51.456 98.8533 51.76C98.3253 52.0587 97.7307 52.208 97.0693 52.208ZM97.0693 50.864C97.736 50.864 98.2933 50.6587 98.7413 50.248C99.1947 49.832 99.5333 49.2853 99.7573 48.608C99.9813 47.9307 100.093 47.1947 100.093 46.4C100.093 45.5627 99.976 44.808 99.7413 44.136C99.512 43.4587 99.1707 42.9227 98.7173 42.528C98.2693 42.1333 97.72 41.936 97.0693 41.936C96.5573 41.936 96.1093 42.056 95.7253 42.296C95.3467 42.536 95.032 42.864 94.7813 43.28C94.5307 43.696 94.3413 44.1733 94.2133 44.712C94.0907 45.2453 94.0293 45.808 94.0293 46.4C94.0293 47.1947 94.144 47.9333 94.3733 48.616C94.6027 49.2933 94.9413 49.8373 95.3893 50.248C95.8427 50.6587 96.4027 50.864 97.0693 50.864Z" fill="#9F9F9F"/>
</g>
<g filter="url(#filter1_d_20_1731)">
<rect x="31" y="307" width="292" height="47" rx="20" fill="#0D3E5C"/>
<path d="M122.802 316.4H124.584L120.318 323.303V329H118.806V323.303L114.54 316.4H116.322L119.562 321.647L122.802 316.4ZM129.603 329.234C128.775 329.234 128.019 329.021 127.335 328.595C126.657 328.169 126.114 327.599 125.706 326.885C125.304 326.165 125.103 325.37 125.103 324.5C125.103 323.84 125.22 323.225 125.454 322.655C125.688 322.079 126.009 321.575 126.417 321.143C126.831 320.705 127.311 320.363 127.857 320.117C128.403 319.871 128.985 319.748 129.603 319.748C130.431 319.748 131.184 319.961 131.862 320.387C132.546 320.813 133.089 321.386 133.491 322.106C133.899 322.826 134.103 323.624 134.103 324.5C134.103 325.154 133.986 325.766 133.752 326.336C133.518 326.906 133.194 327.41 132.78 327.848C132.372 328.28 131.895 328.619 131.349 328.865C130.809 329.111 130.227 329.234 129.603 329.234ZM129.603 327.722C130.167 327.722 130.674 327.575 131.124 327.281C131.58 326.981 131.937 326.588 132.195 326.102C132.459 325.61 132.591 325.076 132.591 324.5C132.591 323.912 132.456 323.372 132.186 322.88C131.922 322.388 131.565 321.995 131.115 321.701C130.665 321.407 130.161 321.26 129.603 321.26C129.039 321.26 128.532 321.41 128.082 321.71C127.632 322.004 127.275 322.397 127.011 322.889C126.747 323.381 126.615 323.918 126.615 324.5C126.615 325.1 126.75 325.646 127.02 326.138C127.29 326.624 127.653 327.011 128.109 327.299C128.565 327.581 129.063 327.722 129.603 327.722ZM143.568 320H145.08V329.288C145.08 329.882 144.951 330.434 144.693 330.944C144.441 331.46 144.099 331.907 143.667 332.285C143.235 332.669 142.743 332.966 142.191 333.176C141.639 333.392 141.063 333.5 140.463 333.5C139.839 333.5 139.236 333.359 138.654 333.077C138.072 332.801 137.562 332.429 137.124 331.961C136.692 331.499 136.38 330.98 136.188 330.404L137.574 329.774C137.688 330.188 137.892 330.56 138.186 330.89C138.486 331.226 138.834 331.49 139.23 331.682C139.632 331.88 140.043 331.979 140.463 331.979C140.859 331.979 141.24 331.91 141.606 331.772C141.978 331.634 142.311 331.442 142.605 331.196C142.905 330.956 143.139 330.671 143.307 330.341C143.481 330.017 143.568 329.666 143.568 329.288V327.497C143.262 328.013 142.857 328.433 142.353 328.757C141.855 329.075 141.273 329.234 140.607 329.234C139.971 329.234 139.374 329.111 138.816 328.865C138.258 328.619 137.769 328.28 137.349 327.848C136.929 327.41 136.599 326.906 136.359 326.336C136.119 325.766 135.999 325.154 135.999 324.5C135.999 323.846 136.119 323.234 136.359 322.664C136.599 322.088 136.929 321.584 137.349 321.152C137.769 320.714 138.258 320.372 138.816 320.126C139.374 319.88 139.971 319.757 140.607 319.757C141.273 319.757 141.855 319.916 142.353 320.234C142.857 320.552 143.262 320.972 143.568 321.494V320ZM140.616 327.767C141.198 327.767 141.702 327.617 142.128 327.317C142.56 327.017 142.893 326.618 143.127 326.12C143.361 325.622 143.478 325.082 143.478 324.5C143.478 323.9 143.358 323.354 143.118 322.862C142.884 322.364 142.551 321.968 142.119 321.674C141.693 321.374 141.192 321.224 140.616 321.224C140.052 321.224 139.536 321.371 139.068 321.665C138.6 321.959 138.228 322.355 137.952 322.853C137.682 323.345 137.547 323.894 137.547 324.5C137.547 325.106 137.685 325.658 137.961 326.156C138.243 326.648 138.615 327.041 139.077 327.335C139.545 327.623 140.058 327.767 140.616 327.767ZM155.357 320H156.869V329H155.357L155.294 327.479C155.012 328.001 154.622 328.424 154.124 328.748C153.632 329.072 153.044 329.234 152.36 329.234C151.7 329.234 151.082 329.111 150.506 328.865C149.93 328.613 149.42 328.268 148.976 327.83C148.538 327.386 148.196 326.876 147.95 326.3C147.704 325.724 147.581 325.103 147.581 324.437C147.581 323.795 147.701 323.189 147.941 322.619C148.181 322.049 148.514 321.551 148.94 321.125C149.372 320.693 149.87 320.357 150.434 320.117C150.998 319.871 151.604 319.748 152.252 319.748C152.96 319.748 153.581 319.916 154.115 320.252C154.649 320.582 155.081 321.011 155.411 321.539L155.357 320ZM152.333 327.767C152.927 327.767 153.44 327.623 153.872 327.335C154.31 327.041 154.646 326.645 154.88 326.147C155.12 325.649 155.24 325.1 155.24 324.5C155.24 323.888 155.12 323.336 154.88 322.844C154.64 322.346 154.301 321.953 153.863 321.665C153.431 321.371 152.921 321.224 152.333 321.224C151.739 321.224 151.199 321.371 150.713 321.665C150.227 321.959 149.84 322.355 149.552 322.853C149.27 323.345 149.129 323.894 149.129 324.5C149.129 325.106 149.276 325.658 149.57 326.156C149.864 326.648 150.254 327.041 150.74 327.335C151.226 327.623 151.757 327.767 152.333 327.767Z" fill="white"/>
<path fill-rule="evenodd" clip-rule="evenodd" d="M49.8963 328.164C48.754 328.164 47.8247 329.094 47.8247 330.236C47.8247 331.378 48.754 332.307 49.8963 332.307C51.0385 332.307 51.9678 331.378 51.9678 330.236C51.9678 329.094 51.0385 328.164 49.8963 328.164ZM49.8964 325.34C52.6006 325.34 54.7928 327.532 54.7928 330.236C54.7928 332.941 52.6006 335.133 49.8964 335.133C47.1922 335.133 45 332.941 45 330.236C45 327.532 47.1922 325.34 49.8964 325.34Z" fill="#0095FF"/>
<path d="M60.689 336V326.144H59.433L59.809 324.8H62.033V336H60.689ZM69.5146 336V332.976H64.6986V331.616L69.1786 324.8H70.8586V331.632H71.9706V332.976H70.8586V336H69.5146ZM66.2746 331.616L69.5146 331.632L69.4906 326.688L66.2746 331.616ZM75.0516 329.472C74.8489 329.472 74.6756 329.4 74.5316 329.256C74.3929 329.112 74.3236 328.936 74.3236 328.728C74.3236 328.531 74.3929 328.36 74.5316 328.216C74.6756 328.072 74.8489 328 75.0516 328C75.2596 328 75.4356 328.072 75.5796 328.216C75.7236 328.36 75.7956 328.531 75.7956 328.728C75.7956 328.936 75.7236 329.112 75.5796 329.256C75.4356 329.4 75.2596 329.472 75.0516 329.472ZM75.0516 336.208C74.8489 336.208 74.6756 336.136 74.5316 335.992C74.3929 335.848 74.3236 335.672 74.3236 335.464C74.3236 335.267 74.3929 335.096 74.5316 334.952C74.6756 334.808 74.8489 334.736 75.0516 334.736C75.2596 334.736 75.4356 334.808 75.5796 334.952C75.7236 335.096 75.7956 335.267 75.7956 335.464C75.7956 335.672 75.7236 335.848 75.5796 335.992C75.4356 336.136 75.2596 336.208 75.0516 336.208ZM82.3037 336.208C81.6371 336.208 81.0397 336.059 80.5117 335.76C79.9837 335.456 79.5304 335.037 79.1517 334.504C78.7731 333.971 78.4851 333.355 78.2877 332.656C78.0904 331.952 77.9917 331.2 77.9917 330.4C77.9917 329.6 78.0904 328.848 78.2877 328.144C78.4851 327.44 78.7731 326.824 79.1517 326.296C79.5304 325.763 79.9837 325.347 80.5117 325.048C81.0397 324.744 81.6371 324.592 82.3037 324.592C82.9651 324.592 83.5597 324.744 84.0877 325.048C84.6211 325.347 85.0717 325.763 85.4397 326.296C85.8131 326.824 86.0984 327.44 86.2957 328.144C86.4984 328.848 86.5997 329.6 86.5997 330.4C86.5997 331.2 86.4984 331.952 86.2957 332.656C86.0984 333.355 85.8131 333.971 85.4397 334.504C85.0717 335.037 84.6211 335.456 84.0877 335.76C83.5597 336.059 82.9651 336.208 82.3037 336.208ZM82.3037 334.864C82.9704 334.864 83.5277 334.659 83.9757 334.248C84.4291 333.832 84.7677 333.285 84.9917 332.608C85.2157 331.931 85.3277 331.195 85.3277 330.4C85.3277 329.563 85.2104 328.808 84.9757 328.136C84.7464 327.459 84.4051 326.923 83.9517 326.528C83.5037 326.133 82.9544 325.936 82.3037 325.936C81.7917 325.936 81.3437 326.056 80.9597 326.296C80.5811 326.536 80.2664 326.864 80.0157 327.28C79.7651 327.696 79.5757 328.173 79.4477 328.712C79.3251 329.245 79.2637 329.808 79.2637 330.4C79.2637 331.195 79.3784 331.933 79.6077 332.616C79.8371 333.293 80.1757 333.837 80.6237 334.248C81.0771 334.659 81.6371 334.864 82.3037 334.864ZM92.3975 336.208C91.7308 336.208 91.1335 336.059 90.6055 335.76C90.0775 335.456 89.6241 335.037 89.2455 334.504C88.8668 333.971 88.5788 333.355 88.3815 332.656C88.1841 331.952 88.0855 331.2 88.0855 330.4C88.0855 329.6 88.1841 328.848 88.3815 328.144C88.5788 327.44 88.8668 326.824 89.2455 326.296C89.6241 325.763 90.0775 325.347 90.6055 325.048C91.1335 324.744 91.7308 324.592 92.3975 324.592C93.0588 324.592 93.6535 324.744 94.1815 325.048C94.7148 325.347 95.1655 325.763 95.5335 326.296C95.9068 326.824 96.1921 327.44 96.3895 328.144C96.5921 328.848 96.6935 329.6 96.6935 330.4C96.6935 331.2 96.5921 331.952 96.3895 332.656C96.1921 333.355 95.9068 333.971 95.5335 334.504C95.1655 335.037 94.7148 335.456 94.1815 335.76C93.6535 336.059 93.0588 336.208 92.3975 336.208ZM92.3975 334.864C93.0641 334.864 93.6215 334.659 94.0695 334.248C94.5228 333.832 94.8615 333.285 95.0855 332.608C95.3095 331.931 95.4215 331.195 95.4215 330.4C95.4215 329.563 95.3041 328.808 95.0695 328.136C94.8401 327.459 94.4988 326.923 94.0455 326.528C93.5975 326.133 93.0481 325.936 92.3975 325.936C91.8855 325.936 91.4375 326.056 91.0535 326.296C90.6748 326.536 90.3601 326.864 90.1095 327.28C89.8588 327.696 89.6695 328.173 89.5415 328.712C89.4188 329.245 89.3575 329.808 89.3575 330.4C89.3575 331.195 89.4721 331.933 89.7015 332.616C89.9308 333.293 90.2695 333.837 90.7175 334.248C91.1708 334.659 91.7308 334.864 92.3975 334.864Z" fill="#9F9F9F"/>
<path d="M116.422 346V338.608H115.48L115.762 337.6H117.43V346H116.422ZM123.229 346V343.732H119.617V342.712L122.977 337.6H124.237V342.724H125.071V343.732H124.237V346H123.229ZM120.799 342.712L123.229 342.724L123.211 339.016L120.799 342.712ZM127.569 341.104C127.417 341.104 127.287 341.05 127.179 340.942C127.075 340.834 127.023 340.702 127.023 340.546C127.023 340.398 127.075 340.27 127.179 340.162C127.287 340.054 127.417 340 127.569 340C127.725 340 127.857 340.054 127.965 340.162C128.073 340.27 128.127 340.398 128.127 340.546C128.127 340.702 128.073 340.834 127.965 340.942C127.857 341.05 127.725 341.104 127.569 341.104ZM127.569 346.156C127.417 346.156 127.287 346.102 127.179 345.994C127.075 345.886 127.023 345.754 127.023 345.598C127.023 345.45 127.075 345.322 127.179 345.214C127.287 345.106 127.417 345.052 127.569 345.052C127.725 345.052 127.857 345.106 127.965 345.214C128.073 345.322 128.127 345.45 128.127 345.598C128.127 345.754 128.073 345.886 127.965 345.994C127.857 346.102 127.725 346.156 127.569 346.156ZM133.196 346.156C132.696 346.156 132.248 346.044 131.852 345.82C131.456 345.592 131.116 345.278 130.832 344.878C130.548 344.478 130.332 344.016 130.184 343.492C130.036 342.964 129.962 342.4 129.962 341.8C129.962 341.2 130.036 340.636 130.184 340.108C130.332 339.58 130.548 339.118 130.832 338.722C131.116 338.322 131.456 338.01 131.852 337.786C132.248 337.558 132.696 337.444 133.196 337.444C133.692 337.444 134.138 337.558 134.534 337.786C134.934 338.01 135.272 338.322 135.548 338.722C135.828 339.118 136.042 339.58 136.19 340.108C136.342 340.636 136.418 341.2 136.418 341.8C136.418 342.4 136.342 342.964 136.19 343.492C136.042 344.016 135.828 344.478 135.548 344.878C135.272 345.278 134.934 345.592 134.534 345.82C134.138 346.044 133.692 346.156 133.196 346.156ZM133.196 345.148C133.696 345.148 134.114 344.994 134.45 344.686C134.79 344.374 135.044 343.964 135.212 343.456C135.38 342.948 135.464 342.396 135.464 341.8C135.464 341.172 135.376 340.606 135.2 340.102C135.028 339.594 134.772 339.192 134.432 338.896C134.096 338.6 133.684 338.452 133.196 338.452C132.812 338.452 132.476 338.542 132.188 338.722C131.904 338.902 131.668 339.148 131.48 339.46C131.292 339.772 131.15 340.13 131.054 340.534C130.962 340.934 130.916 341.356 130.916 341.8C130.916 342.396 131.002 342.95 131.174 343.462C131.346 343.97 131.6 344.378 131.936 344.686C132.276 344.994 132.696 345.148 133.196 345.148ZM140.953 346.156C140.453 346.156 140.005 346.044 139.609 345.82C139.213 345.592 138.873 345.278 138.589 344.878C138.305 344.478 138.089 344.016 137.941 343.492C137.793 342.964 137.719 342.4 137.719 341.8C137.719 341.2 137.793 340.636 137.941 340.108C138.089 339.58 138.305 339.118 138.589 338.722C138.873 338.322 139.213 338.01 139.609 337.786C140.005 337.558 140.453 337.444 140.953 337.444C141.449 337.444 141.895 337.558 142.291 337.786C142.691 338.01 143.029 338.322 143.305 338.722C143.585 339.118 143.799 339.58 143.947 340.108C144.099 340.636 144.175 341.2 144.175 341.8C144.175 342.4 144.099 342.964 143.947 343.492C143.799 344.016 143.585 344.478 143.305 344.878C143.029 345.278 142.691 345.592 142.291 345.82C141.895 346.044 141.449 346.156 140.953 346.156ZM140.953 345.148C141.453 345.148 141.871 344.994 142.207 344.686C142.547 344.374 142.801 343.964 142.969 343.456C143.137 342.948 143.221 342.396 143.221 341.8C143.221 341.172 143.133 340.606 142.957 340.102C142.785 339.594 142.529 339.192 142.189 338.896C141.853 338.6 141.441 338.452 140.953 338.452C140.569 338.452 140.233 338.542 139.945 338.722C139.661 338.902 139.425 339.148 139.237 339.46C139.049 339.772 138.907 340.13 138.811 340.534C138.719 340.934 138.673 341.356 138.673 341.8C138.673 342.396 138.759 342.95 138.931 343.462C139.103 343.97 139.357 344.378 139.693 344.686C140.033 344.994 140.453 345.148 140.953 345.148ZM146.001 341.896H149.841V342.904H146.001V341.896ZM152.738 346V338.608H151.796L152.078 337.6H153.746V346H152.738ZM158.663 346.156C158.143 346.156 157.671 346.03 157.247 345.778C156.823 345.526 156.487 345.19 156.239 344.77C155.995 344.346 155.873 343.88 155.873 343.372H156.881C156.881 343.696 156.961 343.994 157.121 344.266C157.281 344.534 157.495 344.748 157.763 344.908C158.035 345.068 158.335 345.148 158.663 345.148C158.987 345.148 159.283 345.068 159.551 344.908C159.819 344.748 160.033 344.534 160.193 344.266C160.353 343.994 160.433 343.696 160.433 343.372C160.433 343.048 160.357 342.75 160.205 342.478C160.057 342.206 159.839 341.99 159.551 341.83C159.263 341.666 158.913 341.584 158.501 341.584H156.431L157.247 337.6H161.231V338.608H158.063L157.673 340.576L158.543 340.582C159.115 340.594 159.617 340.722 160.049 340.966C160.485 341.206 160.825 341.534 161.069 341.95C161.317 342.362 161.441 342.836 161.441 343.372C161.441 343.752 161.369 344.112 161.225 344.452C161.081 344.788 160.881 345.084 160.625 345.34C160.369 345.596 160.073 345.796 159.737 345.94C159.405 346.084 159.047 346.156 158.663 346.156ZM163.932 341.104C163.78 341.104 163.65 341.05 163.542 340.942C163.438 340.834 163.386 340.702 163.386 340.546C163.386 340.398 163.438 340.27 163.542 340.162C163.65 340.054 163.78 340 163.932 340C164.088 340 164.22 340.054 164.328 340.162C164.436 340.27 164.49 340.398 164.49 340.546C164.49 340.702 164.436 340.834 164.328 340.942C164.22 341.05 164.088 341.104 163.932 341.104ZM163.932 346.156C163.78 346.156 163.65 346.102 163.542 345.994C163.438 345.886 163.386 345.754 163.386 345.598C163.386 345.45 163.438 345.322 163.542 345.214C163.65 345.106 163.78 345.052 163.932 345.052C164.088 345.052 164.22 345.106 164.328 345.214C164.436 345.322 164.49 345.45 164.49 345.598C164.49 345.754 164.436 345.886 164.328 345.994C164.22 346.102 164.088 346.156 163.932 346.156ZM169.559 346.156C169.059 346.156 168.611 346.044 168.215 345.82C167.819 345.592 167.479 345.278 167.195 344.878C166.911 344.478 166.695 344.016 166.547 343.492C166.399 342.964 166.325 342.4 166.325 341.8C166.325 341.2 166.399 340.636 166.547 340.108C166.695 339.58 166.911 339.118 167.195 338.722C167.479 338.322 167.819 338.01 168.215 337.786C168.611 337.558 169.059 337.444 169.559 337.444C170.055 337.444 170.501 337.558 170.897 337.786C171.297 338.01 171.635 338.322 171.911 338.722C172.191 339.118 172.405 339.58 172.553 340.108C172.705 340.636 172.781 341.2 172.781 341.8C172.781 342.4 172.705 342.964 172.553 343.492C172.405 344.016 172.191 344.478 171.911 344.878C171.635 345.278 171.297 345.592 170.897 345.82C170.501 346.044 170.055 346.156 169.559 346.156ZM169.559 345.148C170.059 345.148 170.477 344.994 170.813 344.686C171.153 344.374 171.407 343.964 171.575 343.456C171.743 342.948 171.827 342.396 171.827 341.8C171.827 341.172 171.739 340.606 171.563 340.102C171.391 339.594 171.135 339.192 170.795 338.896C170.459 338.6 170.047 338.452 169.559 338.452C169.175 338.452 168.839 338.542 168.551 338.722C168.267 338.902 168.031 339.148 167.843 339.46C167.655 339.772 167.513 340.13 167.417 340.534C167.325 340.934 167.279 341.356 167.279 341.8C167.279 342.396 167.365 342.95 167.537 343.462C167.709 343.97 167.963 344.378 168.299 344.686C168.639 344.994 169.059 345.148 169.559 345.148ZM177.317 346.156C176.817 346.156 176.369 346.044 175.973 345.82C175.577 345.592 175.237 345.278 174.953 344.878C174.669 344.478 174.453 344.016 174.305 343.492C174.157 342.964 174.083 342.4 174.083 341.8C174.083 341.2 174.157 340.636 174.305 340.108C174.453 339.58 174.669 339.118 174.953 338.722C175.237 338.322 175.577 338.01 175.973 337.786C176.369 337.558 176.817 337.444 177.317 337.444C177.813 337.444 178.259 337.558 178.655 337.786C179.055 338.01 179.393 338.322 179.669 338.722C179.949 339.118 180.163 339.58 180.311 340.108C180.463 340.636 180.539 341.2 180.539 341.8C180.539 342.4 180.463 342.964 180.311 343.492C180.163 344.016 179.949 344.478 179.669 344.878C179.393 345.278 179.055 345.592 178.655 345.82C178.259 346.044 177.813 346.156 177.317 346.156ZM177.317 345.148C177.817 345.148 178.235 344.994 178.571 344.686C178.911 344.374 179.165 343.964 179.333 343.456C179.501 342.948 179.585 342.396 179.585 341.8C179.585 341.172 179.497 340.606 179.321 340.102C179.149 339.594 178.893 339.192 178.553 338.896C178.217 338.6 177.805 338.452 177.317 338.452C176.933 338.452 176.597 338.542 176.309 338.722C176.025 338.902 175.789 339.148 175.601 339.46C175.413 339.772 175.271 340.13 175.175 340.534C175.083 340.934 175.037 341.356 175.037 341.8C175.037 342.396 175.123 342.95 175.295 343.462C175.467 343.97 175.721 344.378 176.057 344.686C176.397 344.994 176.817 345.148 177.317 345.148Z" fill="#9F9F9F"/>
</g>
<path fill-rule="evenodd" clip-rule="evenodd" d="M49.8963 185.164C48.754 185.164 47.8247 186.094 47.8247 187.236C47.8247 188.378 48.754 189.307 49.8963 189.307C51.0385 189.307 51.9678 188.378 51.9678 187.236C51.9678 186.094 51.0385 185.164 49.8963 185.164ZM49.8964 182.34C52.6006 182.34 54.7928 184.532 54.7928 187.236C54.7928 189.941 52.6006 192.133 49.8964 192.133C47.1922 192.133 45 189.941 45 187.236C45 184.532 47.1922 182.34 49.8964 182.34Z" fill="#00B383"/>
<path d="M60.689 193V183.144H59.433L59.809 181.8H62.033V193H60.689ZM65.9546 193V183.144H64.6986L65.0746 181.8H67.2986V193H65.9546ZM70.6922 186.472C70.4896 186.472 70.3162 186.4 70.1722 186.256C70.0336 186.112 69.9642 185.936 69.9642 185.728C69.9642 185.531 70.0336 185.36 70.1722 185.216C70.3162 185.072 70.4896 185 70.6922 185C70.9002 185 71.0762 185.072 71.2202 185.216C71.3642 185.36 71.4362 185.531 71.4362 185.728C71.4362 185.936 71.3642 186.112 71.2202 186.256C71.0762 186.4 70.9002 186.472 70.6922 186.472ZM70.6922 193.208C70.4896 193.208 70.3162 193.136 70.1722 192.992C70.0336 192.848 69.9642 192.672 69.9642 192.464C69.9642 192.267 70.0336 192.096 70.1722 191.952C70.3162 191.808 70.4896 191.736 70.6922 191.736C70.9002 191.736 71.0762 191.808 71.2202 191.952C71.3642 192.096 71.4362 192.267 71.4362 192.464C71.4362 192.672 71.3642 192.848 71.2202 192.992C71.0762 193.136 70.9002 193.208 70.6922 193.208ZM77.9443 193.208C77.2777 193.208 76.6803 193.059 76.1523 192.76C75.6243 192.456 75.171 192.037 74.7923 191.504C74.4137 190.971 74.1257 190.355 73.9283 189.656C73.731 188.952 73.6323 188.2 73.6323 187.4C73.6323 186.6 73.731 185.848 73.9283 185.144C74.1257 184.44 74.4137 183.824 74.7923 183.296C75.171 182.763 75.6243 182.347 76.1523 182.048C76.6803 181.744 77.2777 181.592 77.9443 181.592C78.6057 181.592 79.2003 181.744 79.7283 182.048C80.2617 182.347 80.7123 182.763 81.0803 183.296C81.4537 183.824 81.739 184.44 81.9363 185.144C82.139 185.848 82.2403 186.6 82.2403 187.4C82.2403 188.2 82.139 188.952 81.9363 189.656C81.739 190.355 81.4537 190.971 81.0803 191.504C80.7123 192.037 80.2617 192.456 79.7283 192.76C79.2003 193.059 78.6057 193.208 77.9443 193.208ZM77.9443 191.864C78.611 191.864 79.1683 191.659 79.6163 191.248C80.0697 190.832 80.4083 190.285 80.6323 189.608C80.8563 188.931 80.9683 188.195 80.9683 187.4C80.9683 186.563 80.851 185.808 80.6163 185.136C80.387 184.459 80.0457 183.923 79.5923 183.528C79.1443 183.133 78.595 182.936 77.9443 182.936C77.4323 182.936 76.9843 183.056 76.6003 183.296C76.2217 183.536 75.907 183.864 75.6563 184.28C75.4057 184.696 75.2163 185.173 75.0883 185.712C74.9657 186.245 74.9043 186.808 74.9043 187.4C74.9043 188.195 75.019 188.933 75.2483 189.616C75.4777 190.293 75.8163 190.837 76.2643 191.248C76.7177 191.659 77.2777 191.864 77.9443 191.864ZM88.0381 193.208C87.3714 193.208 86.7741 193.059 86.2461 192.76C85.7181 192.456 85.2648 192.037 84.8861 191.504C84.5074 190.971 84.2194 190.355 84.0221 189.656C83.8248 188.952 83.7261 188.2 83.7261 187.4C83.7261 186.6 83.8248 185.848 84.0221 185.144C84.2194 184.44 84.5074 183.824 84.8861 183.296C85.2648 182.763 85.7181 182.347 86.2461 182.048C86.7741 181.744 87.3714 181.592 88.0381 181.592C88.6994 181.592 89.2941 181.744 89.8221 182.048C90.3554 182.347 90.8061 182.763 91.1741 183.296C91.5474 183.824 91.8328 184.44 92.0301 185.144C92.2328 185.848 92.3341 186.6 92.3341 187.4C92.3341 188.2 92.2328 188.952 92.0301 189.656C91.8328 190.355 91.5474 190.971 91.1741 191.504C90.8061 192.037 90.3554 192.456 89.8221 192.76C89.2941 193.059 88.6994 193.208 88.0381 193.208ZM88.0381 191.864C88.7048 191.864 89.2621 191.659 89.7101 191.248C90.1634 190.832 90.5021 190.285 90.7261 189.608C90.9501 188.931 91.0621 188.195 91.0621 187.4C91.0621 186.563 90.9448 185.808 90.7101 185.136C90.4808 184.459 90.1394 183.923 89.6861 183.528C89.2381 183.133 88.6888 182.936 88.0381 182.936C87.5261 182.936 87.0781 183.056 86.6941 183.296C86.3154 183.536 86.0008 183.864 85.7501 184.28C85.4994 184.696 85.3101 185.173 85.1821 185.712C85.0594 186.245 84.9981 186.808 84.9981 187.4C84.9981 188.195 85.1128 188.933 85.3421 189.616C85.5714 190.293 85.9101 190.837 86.3581 191.248C86.8114 191.659 87.3714 191.864 88.0381 191.864Z" fill="#9F9F9F"/>
<path fill-rule="evenodd" clip-rule="evenodd" d="M49.8963 232.164C48.754 232.164 47.8247 233.094 47.8247 234.236C47.8247 235.378 48.754 236.307 49.8963 236.307C51.0385 236.307 51.9678 235.378 51.9678 234.236C51.9678 233.094 51.0385 232.164 49.8963 232.164ZM49.8964 229.34C52.6006 229.34 54.7928 231.532 54.7928 234.236C54.7928 236.941 52.6006 239.133 49.8964 239.133C47.1922 239.133 45 236.941 45 234.236C45 231.532 47.1922 229.34 49.8964 229.34Z" fill="#00B383"/>
<path d="M60.689 240V230.144H59.433L59.809 228.8H62.033V240H60.689ZM64.6986 240V238.808C65.1093 238.44 65.5706 238.029 66.0826 237.576C66.5946 237.117 67.1039 236.64 67.6106 236.144C68.1226 235.643 68.5919 235.147 69.0186 234.656C69.4453 234.165 69.7893 233.701 70.0506 233.264C70.3119 232.821 70.4426 232.435 70.4426 232.104C70.4426 231.709 70.3466 231.349 70.1546 231.024C69.9626 230.693 69.7039 230.429 69.3786 230.232C69.0586 230.035 68.7013 229.936 68.3066 229.936C67.9119 229.936 67.5493 230.035 67.2186 230.232C66.8933 230.429 66.6319 230.693 66.4346 231.024C66.2426 231.349 66.1466 231.709 66.1466 232.104H64.8026C64.8026 231.448 64.9626 230.856 65.2826 230.328C65.6026 229.795 66.0266 229.373 66.5546 229.064C67.0826 228.749 67.6666 228.592 68.3066 228.592C68.9466 228.592 69.5279 228.749 70.0506 229.064C70.5786 229.379 70.9999 229.803 71.3146 230.336C71.6293 230.864 71.7866 231.453 71.7866 232.104C71.7866 232.477 71.6959 232.88 71.5146 233.312C71.3333 233.739 71.0853 234.179 70.7706 234.632C70.4559 235.085 70.0986 235.544 69.6986 236.008C69.2986 236.467 68.8773 236.92 68.4346 237.368C67.9919 237.816 67.5519 238.245 67.1146 238.656H71.9306V240H64.6986ZM75.0047 233.472C74.8021 233.472 74.6287 233.4 74.4847 233.256C74.3461 233.112 74.2767 232.936 74.2767 232.728C74.2767 232.531 74.3461 232.36 74.4847 232.216C74.6287 232.072 74.8021 232 75.0047 232C75.2127 232 75.3887 232.072 75.5327 232.216C75.6767 232.36 75.7487 232.531 75.7487 232.728C75.7487 232.936 75.6767 233.112 75.5327 233.256C75.3887 233.4 75.2127 233.472 75.0047 233.472ZM75.0047 240.208C74.8021 240.208 74.6287 240.136 74.4847 239.992C74.3461 239.848 74.2767 239.672 74.2767 239.464C74.2767 239.267 74.3461 239.096 74.4847 238.952C74.6287 238.808 74.8021 238.736 75.0047 238.736C75.2127 238.736 75.3887 238.808 75.5327 238.952C75.6767 239.096 75.7487 239.267 75.7487 239.464C75.7487 239.672 75.6767 239.848 75.5327 239.992C75.3887 240.136 75.2127 240.208 75.0047 240.208ZM82.2568 240.208C81.5902 240.208 80.9928 240.059 80.4648 239.76C79.9368 239.456 79.4835 239.037 79.1048 238.504C78.7262 237.971 78.4382 237.355 78.2408 236.656C78.0435 235.952 77.9448 235.2 77.9448 234.4C77.9448 233.6 78.0435 232.848 78.2408 232.144C78.4382 231.44 78.7262 230.824 79.1048 230.296C79.4835 229.763 79.9368 229.347 80.4648 229.048C80.9928 228.744 81.5902 228.592 82.2568 228.592C82.9182 228.592 83.5128 228.744 84.0408 229.048C84.5742 229.347 85.0248 229.763 85.3928 230.296C85.7662 230.824 86.0515 231.44 86.2488 232.144C86.4515 232.848 86.5528 233.6 86.5528 234.4C86.5528 235.2 86.4515 235.952 86.2488 236.656C86.0515 237.355 85.7662 237.971 85.3928 238.504C85.0248 239.037 84.5742 239.456 84.0408 239.76C83.5128 240.059 82.9182 240.208 82.2568 240.208ZM82.2568 238.864C82.9235 238.864 83.4808 238.659 83.9288 238.248C84.3822 237.832 84.7208 237.285 84.9448 236.608C85.1688 235.931 85.2808 235.195 85.2808 234.4C85.2808 233.563 85.1635 232.808 84.9288 232.136C84.6995 231.459 84.3582 230.923 83.9048 230.528C83.4568 230.133 82.9075 229.936 82.2568 229.936C81.7448 229.936 81.2968 230.056 80.9128 230.296C80.5342 230.536 80.2195 230.864 79.9688 231.28C79.7182 231.696 79.5288 232.173 79.4008 232.712C79.2782 233.245 79.2168 233.808 79.2168 234.4C79.2168 235.195 79.3315 235.933 79.5608 236.616C79.7902 237.293 80.1288 237.837 80.5768 238.248C81.0302 238.659 81.5902 238.864 82.2568 238.864ZM92.3506 240.208C91.6839 240.208 91.0866 240.059 90.5586 239.76C90.0306 239.456 89.5773 239.037 89.1986 238.504C88.8199 237.971 88.5319 237.355 88.3346 236.656C88.1373 235.952 88.0386 235.2 88.0386 234.4C88.0386 233.6 88.1373 232.848 88.3346 232.144C88.5319 231.44 88.8199 230.824 89.1986 230.296C89.5773 229.763 90.0306 229.347 90.5586 229.048C91.0866 228.744 91.6839 228.592 92.3506 228.592C93.0119 228.592 93.6066 228.744 94.1346 229.048C94.6679 229.347 95.1186 229.763 95.4866 230.296C95.8599 230.824 96.1453 231.44 96.3426 232.144C96.5453 232.848 96.6466 233.6 96.6466 234.4C96.6466 235.2 96.5453 235.952 96.3426 236.656C96.1453 237.355 95.8599 237.971 95.4866 238.504C95.1186 239.037 94.6679 239.456 94.1346 239.76C93.6066 240.059 93.0119 240.208 92.3506 240.208ZM92.3506 238.864C93.0173 238.864 93.5746 238.659 94.0226 238.248C94.4759 237.832 94.8146 237.285 95.0386 236.608C95.2626 235.931 95.3746 235.195 95.3746 234.4C95.3746 233.563 95.2573 232.808 95.0226 232.136C94.7933 231.459 94.4519 230.923 93.9986 230.528C93.5506 230.133 93.0013 229.936 92.3506 229.936C91.8386 229.936 91.3906 230.056 91.0066 230.296C90.6279 230.536 90.3133 230.864 90.0626 231.28C89.8119 231.696 89.6226 232.173 89.4946 232.712C89.3719 233.245 89.3106 233.808 89.3106 234.4C89.3106 235.195 89.4253 235.933 89.6546 236.616C89.8839 237.293 90.2226 237.837 90.6706 238.248C91.1239 238.659 91.6839 238.864 92.3506 238.864Z" fill="#9F9F9F"/>
<path fill-rule="evenodd" clip-rule="evenodd" d="M49.8963 279.164C48.754 279.164 47.8247 280.094 47.8247 281.236C47.8247 282.378 48.754 283.307 49.8963 283.307C51.0385 283.307 51.9678 282.378 51.9678 281.236C51.9678 280.094 51.0385 279.164 49.8963 279.164ZM49.8964 276.34C52.6006 276.34 54.7928 278.532 54.7928 281.236C54.7928 283.941 52.6006 286.133 49.8964 286.133C47.1922 286.133 45 283.941 45 281.236C45 278.532 47.1922 276.34 49.8964 276.34Z" fill="#00B383"/>
<path d="M60.689 287V277.144H59.433L59.809 275.8H62.033V287H60.689ZM68.0266 287.208C67.3493 287.208 66.7466 287.056 66.2186 286.752C65.6959 286.443 65.2853 286.032 64.9866 285.52C64.6879 285.003 64.5386 284.429 64.5386 283.8H65.8826C65.8826 284.179 65.9706 284.525 66.1466 284.84C66.3226 285.149 66.5706 285.397 66.8906 285.584C67.2106 285.771 67.5893 285.864 68.0266 285.864C68.4053 285.864 68.7573 285.771 69.0826 285.584C69.4133 285.397 69.6799 285.149 69.8826 284.84C70.0853 284.525 70.1866 284.179 70.1866 283.8C70.1866 283.325 70.0639 282.931 69.8186 282.616C69.5786 282.296 69.2426 282.059 68.8106 281.904C68.3839 281.744 67.8959 281.664 67.3466 281.664V280.584C68.1039 280.584 68.7093 280.427 69.1626 280.112C69.6213 279.797 69.8506 279.333 69.8506 278.72C69.8506 278.395 69.7626 278.096 69.5866 277.824C69.4106 277.552 69.1786 277.336 68.8906 277.176C68.6079 277.011 68.3039 276.928 67.9786 276.928C67.6479 276.928 67.3306 277.011 67.0266 277.176C66.7226 277.336 66.4746 277.552 66.2826 277.824C66.0906 278.096 65.9946 278.395 65.9946 278.72H64.6506C64.6506 278.288 64.7386 277.883 64.9146 277.504C65.0959 277.125 65.3413 276.792 65.6506 276.504C65.9653 276.216 66.3199 275.992 66.7146 275.832C67.1093 275.667 67.5253 275.584 67.9626 275.584C68.5333 275.584 69.0639 275.725 69.5546 276.008C70.0453 276.291 70.4399 276.669 70.7386 277.144C71.0426 277.619 71.1946 278.144 71.1946 278.72C71.1946 279.237 71.0639 279.715 70.8026 280.152C70.5413 280.589 70.1866 280.896 69.7386 281.072C70.1279 281.205 70.4559 281.413 70.7226 281.696C70.9893 281.973 71.1893 282.293 71.3226 282.656C71.4613 283.019 71.5306 283.4 71.5306 283.8C71.5306 284.424 71.3679 284.995 71.0426 285.512C70.7226 286.029 70.2959 286.443 69.7626 286.752C69.2346 287.056 68.6559 287.208 68.0266 287.208ZM74.1297 280.472C73.9271 280.472 73.7537 280.4 73.6097 280.256C73.4711 280.112 73.4017 279.936 73.4017 279.728C73.4017 279.531 73.4711 279.36 73.6097 279.216C73.7537 279.072 73.9271 279 74.1297 279C74.3377 279 74.5137 279.072 74.6577 279.216C74.8017 279.36 74.8737 279.531 74.8737 279.728C74.8737 279.936 74.8017 280.112 74.6577 280.256C74.5137 280.4 74.3377 280.472 74.1297 280.472ZM74.1297 287.208C73.9271 287.208 73.7537 287.136 73.6097 286.992C73.4711 286.848 73.4017 286.672 73.4017 286.464C73.4017 286.267 73.4711 286.096 73.6097 285.952C73.7537 285.808 73.9271 285.736 74.1297 285.736C74.3377 285.736 74.5137 285.808 74.6577 285.952C74.8017 286.096 74.8737 286.267 74.8737 286.464C74.8737 286.672 74.8017 286.848 74.6577 286.992C74.5137 287.136 74.3377 287.208 74.1297 287.208ZM81.3818 287.208C80.7152 287.208 80.1178 287.059 79.5898 286.76C79.0618 286.456 78.6085 286.037 78.2298 285.504C77.8512 284.971 77.5632 284.355 77.3658 283.656C77.1685 282.952 77.0698 282.2 77.0698 281.4C77.0698 280.6 77.1685 279.848 77.3658 279.144C77.5632 278.44 77.8512 277.824 78.2298 277.296C78.6085 276.763 79.0618 276.347 79.5898 276.048C80.1178 275.744 80.7152 275.592 81.3818 275.592C82.0432 275.592 82.6378 275.744 83.1658 276.048C83.6992 276.347 84.1498 276.763 84.5178 277.296C84.8912 277.824 85.1765 278.44 85.3738 279.144C85.5765 279.848 85.6778 280.6 85.6778 281.4C85.6778 282.2 85.5765 282.952 85.3738 283.656C85.1765 284.355 84.8912 284.971 84.5178 285.504C84.1498 286.037 83.6992 286.456 83.1658 286.76C82.6378 287.059 82.0432 287.208 81.3818 287.208ZM81.3818 285.864C82.0485 285.864 82.6058 285.659 83.0538 285.248C83.5072 284.832 83.8458 284.285 84.0698 283.608C84.2938 282.931 84.4058 282.195 84.4058 281.4C84.4058 280.563 84.2885 279.808 84.0538 279.136C83.8245 278.459 83.4832 277.923 83.0298 277.528C82.5818 277.133 82.0325 276.936 81.3818 276.936C80.8698 276.936 80.4218 277.056 80.0378 277.296C79.6592 277.536 79.3445 277.864 79.0938 278.28C78.8432 278.696 78.6538 279.173 78.5258 279.712C78.4032 280.245 78.3418 280.808 78.3418 281.4C78.3418 282.195 78.4565 282.933 78.6858 283.616C78.9152 284.293 79.2538 284.837 79.7018 285.248C80.1552 285.659 80.7152 285.864 81.3818 285.864ZM91.4756 287.208C90.8089 287.208 90.2116 287.059 89.6836 286.76C89.1556 286.456 88.7023 286.037 88.3236 285.504C87.9449 284.971 87.6569 284.355 87.4596 283.656C87.2623 282.952 87.1636 282.2 87.1636 281.4C87.1636 280.6 87.2623 279.848 87.4596 279.144C87.6569 278.44 87.9449 277.824 88.3236 277.296C88.7023 276.763 89.1556 276.347 89.6836 276.048C90.2116 275.744 90.8089 275.592 91.4756 275.592C92.1369 275.592 92.7316 275.744 93.2596 276.048C93.7929 276.347 94.2436 276.763 94.6116 277.296C94.9849 277.824 95.2703 278.44 95.4676 279.144C95.6703 279.848 95.7716 280.6 95.7716 281.4C95.7716 282.2 95.6703 282.952 95.4676 283.656C95.2703 284.355 94.9849 284.971 94.6116 285.504C94.2436 286.037 93.7929 286.456 93.2596 286.76C92.7316 287.059 92.1369 287.208 91.4756 287.208ZM91.4756 285.864C92.1423 285.864 92.6996 285.659 93.1476 285.248C93.6009 284.832 93.9396 284.285 94.1636 283.608C94.3876 282.931 94.4996 282.195 94.4996 281.4C94.4996 280.563 94.3823 279.808 94.1476 279.136C93.9183 278.459 93.5769 277.923 93.1236 277.528C92.6756 277.133 92.1263 276.936 91.4756 276.936C90.9636 276.936 90.5156 277.056 90.1316 277.296C89.7529 277.536 89.4383 277.864 89.1876 278.28C88.9369 278.696 88.7476 279.173 88.6196 279.712C88.4969 280.245 88.4356 280.808 88.4356 281.4C88.4356 282.195 88.5503 282.933 88.7796 283.616C89.0089 284.293 89.3476 284.837 89.7956 285.248C90.2489 285.659 90.8089 285.864 91.4756 285.864Z" fill="#9F9F9F"/>
<path d="M119.517 147.234C118.839 147.234 118.185 147.129 117.555 146.919C116.925 146.703 116.373 146.397 115.899 146.001C115.431 145.605 115.098 145.134 114.9 144.588L116.313 144.057C116.433 144.393 116.655 144.687 116.979 144.939C117.309 145.185 117.696 145.377 118.14 145.515C118.584 145.653 119.043 145.722 119.517 145.722C120.057 145.722 120.558 145.635 121.02 145.461C121.488 145.281 121.866 145.032 122.154 144.714C122.442 144.396 122.586 144.024 122.586 143.598C122.586 143.16 122.436 142.803 122.136 142.527C121.836 142.245 121.452 142.023 120.984 141.861C120.516 141.693 120.027 141.564 119.517 141.474C118.647 141.33 117.867 141.126 117.177 140.862C116.493 140.592 115.95 140.217 115.548 139.737C115.152 139.257 114.954 138.624 114.954 137.838C114.954 137.106 115.164 136.467 115.584 135.921C116.01 135.375 116.571 134.952 117.267 134.652C117.963 134.352 118.713 134.202 119.517 134.202C120.183 134.202 120.828 134.307 121.452 134.517C122.082 134.721 122.637 135.021 123.117 135.417C123.597 135.813 123.942 136.296 124.152 136.866L122.721 137.388C122.601 137.046 122.376 136.752 122.046 136.506C121.722 136.254 121.338 136.062 120.894 135.93C120.456 135.792 119.997 135.723 119.517 135.723C118.983 135.717 118.485 135.804 118.023 135.984C117.561 136.164 117.186 136.413 116.898 136.731C116.61 137.049 116.466 137.418 116.466 137.838C116.466 138.342 116.598 138.729 116.862 138.999C117.132 139.263 117.498 139.461 117.96 139.593C118.422 139.725 118.941 139.842 119.517 139.944C120.333 140.082 121.089 140.301 121.785 140.601C122.481 140.895 123.039 141.288 123.459 141.78C123.885 142.272 124.098 142.878 124.098 143.598C124.098 144.33 123.885 144.969 123.459 145.515C123.039 146.061 122.481 146.484 121.785 146.784C121.089 147.084 120.333 147.234 119.517 147.234ZM135.198 141.402V147H133.686V141.735C133.686 141.279 133.575 140.865 133.353 140.493C133.131 140.121 132.834 139.827 132.462 139.611C132.09 139.389 131.676 139.278 131.22 139.278C130.77 139.278 130.356 139.389 129.978 139.611C129.606 139.827 129.309 140.121 129.087 140.493C128.865 140.865 128.754 141.279 128.754 141.735V147H127.242V133.5H128.754V139.125C129.072 138.705 129.474 138.372 129.96 138.126C130.446 137.874 130.974 137.748 131.544 137.748C132.216 137.748 132.828 137.913 133.38 138.243C133.938 138.567 134.379 139.005 134.703 139.557C135.033 140.109 135.198 140.724 135.198 141.402ZM141.782 147.234C140.954 147.234 140.198 147.021 139.514 146.595C138.836 146.169 138.293 145.599 137.885 144.885C137.483 144.165 137.282 143.37 137.282 142.5C137.282 141.84 137.399 141.225 137.633 140.655C137.867 140.079 138.188 139.575 138.596 139.143C139.01 138.705 139.49 138.363 140.036 138.117C140.582 137.871 141.164 137.748 141.782 137.748C142.61 137.748 143.363 137.961 144.041 138.387C144.725 138.813 145.268 139.386 145.67 140.106C146.078 140.826 146.282 141.624 146.282 142.5C146.282 143.154 146.165 143.766 145.931 144.336C145.697 144.906 145.373 145.41 144.959 145.848C144.551 146.28 144.074 146.619 143.528 146.865C142.988 147.111 142.406 147.234 141.782 147.234ZM141.782 145.722C142.346 145.722 142.853 145.575 143.303 145.281C143.759 144.981 144.116 144.588 144.374 144.102C144.638 143.61 144.77 143.076 144.77 142.5C144.77 141.912 144.635 141.372 144.365 140.88C144.101 140.388 143.744 139.995 143.294 139.701C142.844 139.407 142.34 139.26 141.782 139.26C141.218 139.26 140.711 139.41 140.261 139.71C139.811 140.004 139.454 140.397 139.19 140.889C138.926 141.381 138.794 141.918 138.794 142.5C138.794 143.1 138.929 143.646 139.199 144.138C139.469 144.624 139.832 145.011 140.288 145.299C140.744 145.581 141.242 145.722 141.782 145.722ZM150.283 151.5H148.771V138H150.283V139.539C150.589 139.011 150.997 138.585 151.507 138.261C152.017 137.931 152.623 137.766 153.325 137.766C153.979 137.766 154.591 137.889 155.161 138.135C155.737 138.381 156.241 138.723 156.673 139.161C157.105 139.593 157.444 140.094 157.69 140.664C157.936 141.234 158.059 141.846 158.059 142.5C158.059 143.154 157.936 143.769 157.69 144.345C157.444 144.921 157.105 145.428 156.673 145.866C156.241 146.298 155.737 146.637 155.161 146.883C154.591 147.129 153.979 147.252 153.325 147.252C152.623 147.252 152.017 147.09 151.507 146.766C150.997 146.436 150.589 146.007 150.283 145.479V151.5ZM153.307 139.233C152.725 139.233 152.215 139.38 151.777 139.674C151.339 139.968 151 140.361 150.76 140.853C150.526 141.345 150.409 141.894 150.409 142.5C150.409 143.1 150.526 143.649 150.76 144.147C151 144.645 151.336 145.041 151.768 145.335C152.206 145.629 152.719 145.776 153.307 145.776C153.889 145.776 154.423 145.632 154.909 145.344C155.395 145.05 155.785 144.657 156.079 144.165C156.373 143.667 156.52 143.112 156.52 142.5C156.52 141.9 156.376 141.354 156.088 140.862C155.8 140.364 155.413 139.968 154.927 139.674C154.441 139.38 153.901 139.233 153.307 139.233ZM162.076 151.5H160.564V138H162.076V139.539C162.382 139.011 162.79 138.585 163.3 138.261C163.81 137.931 164.416 137.766 165.118 137.766C165.772 137.766 166.384 137.889 166.954 138.135C167.53 138.381 168.034 138.723 168.466 139.161C168.898 139.593 169.237 140.094 169.483 140.664C169.729 141.234 169.852 141.846 169.852 142.5C169.852 143.154 169.729 143.769 169.483 144.345C169.237 144.921 168.898 145.428 168.466 145.866C168.034 146.298 167.53 146.637 166.954 146.883C166.384 147.129 165.772 147.252 165.118 147.252C164.416 147.252 163.81 147.09 163.3 146.766C162.79 146.436 162.382 146.007 162.076 145.479V151.5ZM165.1 139.233C164.518 139.233 164.008 139.38 163.57 139.674C163.132 139.968 162.793 140.361 162.553 140.853C162.319 141.345 162.202 141.894 162.202 142.5C162.202 143.1 162.319 143.649 162.553 144.147C162.793 144.645 163.129 145.041 163.561 145.335C163.999 145.629 164.512 145.776 165.1 145.776C165.682 145.776 166.216 145.632 166.702 145.344C167.188 145.05 167.578 144.657 167.872 144.165C168.166 143.667 168.313 143.112 168.313 142.5C168.313 141.9 168.169 141.354 167.881 140.862C167.593 140.364 167.206 139.968 166.72 139.674C166.234 139.38 165.694 139.233 165.1 139.233ZM172.234 138H173.746V147H172.234V138ZM173.008 136.533C172.768 136.533 172.567 136.455 172.405 136.299C172.243 136.143 172.162 135.948 172.162 135.714C172.162 135.48 172.243 135.285 172.405 135.129C172.567 134.973 172.765 134.895 172.999 134.895C173.233 134.895 173.431 134.973 173.593 135.129C173.755 135.285 173.836 135.48 173.836 135.714C173.836 135.948 173.755 136.143 173.593 136.299C173.437 136.455 173.242 136.533 173.008 136.533ZM184.811 141.402V147H183.299V141.735C183.299 141.279 183.188 140.865 182.966 140.493C182.744 140.121 182.447 139.827 182.075 139.611C181.703 139.389 181.289 139.278 180.833 139.278C180.383 139.278 179.969 139.389 179.591 139.611C179.219 139.827 178.922 140.121 178.7 140.493C178.478 140.865 178.367 141.279 178.367 141.735V147H176.855V138H178.367V139.125C178.685 138.705 179.087 138.372 179.573 138.126C180.059 137.874 180.587 137.748 181.157 137.748C181.829 137.748 182.441 137.913 182.993 138.243C183.551 138.567 183.992 139.005 184.316 139.557C184.646 140.109 184.811 140.724 184.811 141.402ZM194.464 138H195.976V147.288C195.976 147.882 195.847 148.434 195.589 148.944C195.337 149.46 194.995 149.907 194.563 150.285C194.131 150.669 193.639 150.966 193.087 151.176C192.535 151.392 191.959 151.5 191.359 151.5C190.735 151.5 190.132 151.359 189.55 151.077C188.968 150.801 188.458 150.429 188.02 149.961C187.588 149.499 187.276 148.98 187.084 148.404L188.47 147.774C188.584 148.188 188.788 148.56 189.082 148.89C189.382 149.226 189.73 149.49 190.126 149.682C190.528 149.88 190.939 149.979 191.359 149.979C191.755 149.979 192.136 149.91 192.502 149.772C192.874 149.634 193.207 149.442 193.501 149.196C193.801 148.956 194.035 148.671 194.203 148.341C194.377 148.017 194.464 147.666 194.464 147.288V145.497C194.158 146.013 193.753 146.433 193.249 146.757C192.751 147.075 192.169 147.234 191.503 147.234C190.867 147.234 190.27 147.111 189.712 146.865C189.154 146.619 188.665 146.28 188.245 145.848C187.825 145.41 187.495 144.906 187.255 144.336C187.015 143.766 186.895 143.154 186.895 142.5C186.895 141.846 187.015 141.234 187.255 140.664C187.495 140.088 187.825 139.584 188.245 139.152C188.665 138.714 189.154 138.372 189.712 138.126C190.27 137.88 190.867 137.757 191.503 137.757C192.169 137.757 192.751 137.916 193.249 138.234C193.753 138.552 194.158 138.972 194.464 139.494V138ZM191.512 145.767C192.094 145.767 192.598 145.617 193.024 145.317C193.456 145.017 193.789 144.618 194.023 144.12C194.257 143.622 194.374 143.082 194.374 142.5C194.374 141.9 194.254 141.354 194.014 140.862C193.78 140.364 193.447 139.968 193.015 139.674C192.589 139.374 192.088 139.224 191.512 139.224C190.948 139.224 190.432 139.371 189.964 139.665C189.496 139.959 189.124 140.355 188.848 140.853C188.578 141.345 188.443 141.894 188.443 142.5C188.443 143.106 188.581 143.658 188.857 144.156C189.139 144.648 189.511 145.041 189.973 145.335C190.441 145.623 190.954 145.767 191.512 145.767ZM208.47 147H206.94L203.925 138H205.401L207.723 144.867L210.018 138H211.575L213.879 144.867L216.174 138H217.668L214.653 147H213.114L210.783 140.07L208.47 147ZM220.125 138H221.637V147H220.125V138ZM220.899 136.533C220.659 136.533 220.458 136.455 220.296 136.299C220.134 136.143 220.053 135.948 220.053 135.714C220.053 135.48 220.134 135.285 220.296 135.129C220.458 134.973 220.656 134.895 220.89 134.895C221.124 134.895 221.322 134.973 221.484 135.129C221.646 135.285 221.727 135.48 221.727 135.714C221.727 135.948 221.646 136.143 221.484 136.299C221.328 136.455 221.133 136.533 220.899 136.533ZM229.461 139.512H227.418L227.409 147H225.897L225.906 139.512H224.358V138H225.906L225.897 135.174H227.409L227.418 138H229.461V139.512ZM240.03 141.402V147H238.518V141.735C238.518 141.279 238.407 140.865 238.185 140.493C237.963 140.121 237.666 139.827 237.294 139.611C236.922 139.389 236.508 139.278 236.052 139.278C235.602 139.278 235.188 139.389 234.81 139.611C234.438 139.827 234.141 140.121 233.919 140.493C233.697 140.865 233.586 141.279 233.586 141.735V147H232.074V133.5H233.586V139.125C233.904 138.705 234.306 138.372 234.792 138.126C235.278 137.874 235.806 137.748 236.376 137.748C237.048 137.748 237.66 137.913 238.212 138.243C238.77 138.567 239.211 139.005 239.535 139.557C239.865 140.109 240.03 140.724 240.03 141.402ZM248.154 147V134.4H255.885V135.912H249.666V139.494H254.76V141.006H249.666V145.488H255.885V147H248.154ZM258.857 147V138H260.369V139.125C260.687 138.705 261.086 138.372 261.566 138.126C262.052 137.874 262.58 137.748 263.15 137.748C263.816 137.748 264.425 137.91 264.977 138.234C265.529 138.558 265.964 138.987 266.282 139.521C266.6 138.987 267.032 138.558 267.578 138.234C268.13 137.91 268.736 137.748 269.396 137.748C270.074 137.748 270.689 137.913 271.241 138.243C271.793 138.567 272.231 139.005 272.555 139.557C272.885 140.109 273.05 140.724 273.05 141.402V147H271.538V141.762C271.538 141.318 271.43 140.907 271.214 140.529C270.998 140.151 270.707 139.848 270.341 139.62C269.975 139.392 269.57 139.278 269.126 139.278C268.682 139.278 268.277 139.386 267.911 139.602C267.545 139.812 267.254 140.106 267.038 140.484C266.822 140.856 266.714 141.282 266.714 141.762V147H265.202V141.762C265.202 141.282 265.094 140.856 264.878 140.484C264.662 140.106 264.368 139.812 263.996 139.602C263.63 139.386 263.225 139.278 262.781 139.278C262.343 139.278 261.938 139.392 261.566 139.62C261.2 139.848 260.909 140.151 260.693 140.529C260.477 140.907 260.369 141.318 260.369 141.762V147H258.857ZM275.853 138H277.365V147H275.853V138ZM276.627 136.533C276.387 136.533 276.186 136.455 276.024 136.299C275.862 136.143 275.781 135.948 275.781 135.714C275.781 135.48 275.862 135.285 276.024 135.129C276.186 134.973 276.384 134.895 276.618 134.895C276.852 134.895 277.05 134.973 277.212 135.129C277.374 135.285 277.455 135.48 277.455 135.714C277.455 135.948 277.374 136.143 277.212 136.299C277.056 136.455 276.861 136.533 276.627 136.533ZM280.58 147V133.5H282.092V147H280.58ZM291.067 138H292.669L287.746 151.5H286.144L287.773 147L284.542 138H286.198L288.529 144.921L291.067 138Z" fill="white"/>
<path d="M115.422 166V158.608H114.48L114.762 157.6H116.43V166H115.422ZM121.731 166.156C121.231 166.156 120.783 166.044 120.387 165.82C119.991 165.592 119.651 165.278 119.367 164.878C119.083 164.478 118.867 164.016 118.719 163.492C118.571 162.964 118.497 162.4 118.497 161.8C118.497 161.2 118.571 160.636 118.719 160.108C118.867 159.58 119.083 159.118 119.367 158.722C119.651 158.322 119.991 158.01 120.387 157.786C120.783 157.558 121.231 157.444 121.731 157.444C122.227 157.444 122.673 157.558 123.069 157.786C123.469 158.01 123.807 158.322 124.083 158.722C124.363 159.118 124.577 159.58 124.725 160.108C124.877 160.636 124.953 161.2 124.953 161.8C124.953 162.4 124.877 162.964 124.725 163.492C124.577 164.016 124.363 164.478 124.083 164.878C123.807 165.278 123.469 165.592 123.069 165.82C122.673 166.044 122.227 166.156 121.731 166.156ZM121.731 165.148C122.231 165.148 122.649 164.994 122.985 164.686C123.325 164.374 123.579 163.964 123.747 163.456C123.915 162.948 123.999 162.396 123.999 161.8C123.999 161.172 123.911 160.606 123.735 160.102C123.563 159.594 123.307 159.192 122.967 158.896C122.631 158.6 122.219 158.452 121.731 158.452C121.347 158.452 121.011 158.542 120.723 158.722C120.439 158.902 120.203 159.148 120.015 159.46C119.827 159.772 119.685 160.13 119.589 160.534C119.497 160.934 119.451 161.356 119.451 161.8C119.451 162.396 119.537 162.95 119.709 163.462C119.881 163.97 120.135 164.378 120.471 164.686C120.811 164.994 121.231 165.148 121.731 165.148ZM127.085 161.104C126.933 161.104 126.803 161.05 126.695 160.942C126.591 160.834 126.539 160.702 126.539 160.546C126.539 160.398 126.591 160.27 126.695 160.162C126.803 160.054 126.933 160 127.085 160C127.241 160 127.373 160.054 127.481 160.162C127.589 160.27 127.643 160.398 127.643 160.546C127.643 160.702 127.589 160.834 127.481 160.942C127.373 161.05 127.241 161.104 127.085 161.104ZM127.085 166.156C126.933 166.156 126.803 166.102 126.695 165.994C126.591 165.886 126.539 165.754 126.539 165.598C126.539 165.45 126.591 165.322 126.695 165.214C126.803 165.106 126.933 165.052 127.085 165.052C127.241 165.052 127.373 165.106 127.481 165.214C127.589 165.322 127.643 165.45 127.643 165.598C127.643 165.754 127.589 165.886 127.481 165.994C127.373 166.102 127.241 166.156 127.085 166.156ZM132.711 166.156C132.211 166.156 131.763 166.044 131.367 165.82C130.971 165.592 130.631 165.278 130.347 164.878C130.063 164.478 129.847 164.016 129.699 163.492C129.551 162.964 129.477 162.4 129.477 161.8C129.477 161.2 129.551 160.636 129.699 160.108C129.847 159.58 130.063 159.118 130.347 158.722C130.631 158.322 130.971 158.01 131.367 157.786C131.763 157.558 132.211 157.444 132.711 157.444C133.207 157.444 133.653 157.558 134.049 157.786C134.449 158.01 134.787 158.322 135.063 158.722C135.343 159.118 135.557 159.58 135.705 160.108C135.857 160.636 135.933 161.2 135.933 161.8C135.933 162.4 135.857 162.964 135.705 163.492C135.557 164.016 135.343 164.478 135.063 164.878C134.787 165.278 134.449 165.592 134.049 165.82C133.653 166.044 133.207 166.156 132.711 166.156ZM132.711 165.148C133.211 165.148 133.629 164.994 133.965 164.686C134.305 164.374 134.559 163.964 134.727 163.456C134.895 162.948 134.979 162.396 134.979 161.8C134.979 161.172 134.891 160.606 134.715 160.102C134.543 159.594 134.287 159.192 133.947 158.896C133.611 158.6 133.199 158.452 132.711 158.452C132.327 158.452 131.991 158.542 131.703 158.722C131.419 158.902 131.183 159.148 130.995 159.46C130.807 159.772 130.665 160.13 130.569 160.534C130.477 160.934 130.431 161.356 130.431 161.8C130.431 162.396 130.517 162.95 130.689 163.462C130.861 163.97 131.115 164.378 131.451 164.686C131.791 164.994 132.211 165.148 132.711 165.148ZM140.469 166.156C139.969 166.156 139.521 166.044 139.125 165.82C138.729 165.592 138.389 165.278 138.105 164.878C137.821 164.478 137.605 164.016 137.457 163.492C137.309 162.964 137.235 162.4 137.235 161.8C137.235 161.2 137.309 160.636 137.457 160.108C137.605 159.58 137.821 159.118 138.105 158.722C138.389 158.322 138.729 158.01 139.125 157.786C139.521 157.558 139.969 157.444 140.469 157.444C140.965 157.444 141.411 157.558 141.807 157.786C142.207 158.01 142.545 158.322 142.821 158.722C143.101 159.118 143.315 159.58 143.463 160.108C143.615 160.636 143.691 161.2 143.691 161.8C143.691 162.4 143.615 162.964 143.463 163.492C143.315 164.016 143.101 164.478 142.821 164.878C142.545 165.278 142.207 165.592 141.807 165.82C141.411 166.044 140.965 166.156 140.469 166.156ZM140.469 165.148C140.969 165.148 141.387 164.994 141.723 164.686C142.063 164.374 142.317 163.964 142.485 163.456C142.653 162.948 142.737 162.396 142.737 161.8C142.737 161.172 142.649 160.606 142.473 160.102C142.301 159.594 142.045 159.192 141.705 158.896C141.369 158.6 140.957 158.452 140.469 158.452C140.085 158.452 139.749 158.542 139.461 158.722C139.177 158.902 138.941 159.148 138.753 159.46C138.565 159.772 138.423 160.13 138.327 160.534C138.235 160.934 138.189 161.356 138.189 161.8C138.189 162.396 138.275 162.95 138.447 163.462C138.619 163.97 138.873 164.378 139.209 164.686C139.549 164.994 139.969 165.148 140.469 165.148ZM145.517 161.896H149.357V162.904H145.517V161.896ZM152.254 166V158.608H151.312L151.594 157.6H153.262V166H152.254ZM155.449 166V165.106C155.757 164.83 156.103 164.522 156.487 164.182C156.871 163.838 157.253 163.48 157.633 163.108C158.017 162.732 158.369 162.36 158.689 161.992C159.009 161.624 159.267 161.276 159.463 160.948C159.659 160.616 159.757 160.326 159.757 160.078C159.757 159.782 159.685 159.512 159.541 159.268C159.397 159.02 159.203 158.822 158.959 158.674C158.719 158.526 158.451 158.452 158.155 158.452C157.859 158.452 157.587 158.526 157.339 158.674C157.095 158.822 156.899 159.02 156.751 159.268C156.607 159.512 156.535 159.782 156.535 160.078H155.527C155.527 159.586 155.647 159.142 155.887 158.746C156.127 158.346 156.445 158.03 156.841 157.798C157.237 157.562 157.675 157.444 158.155 157.444C158.635 157.444 159.071 157.562 159.463 157.798C159.859 158.034 160.175 158.352 160.411 158.752C160.647 159.148 160.765 159.59 160.765 160.078C160.765 160.358 160.697 160.66 160.561 160.984C160.425 161.304 160.239 161.634 160.003 161.974C159.767 162.314 159.499 162.658 159.199 163.006C158.899 163.35 158.583 163.69 158.251 164.026C157.919 164.362 157.589 164.684 157.261 164.992H160.873V166H155.449ZM163.366 161.104C163.214 161.104 163.084 161.05 162.976 160.942C162.872 160.834 162.82 160.702 162.82 160.546C162.82 160.398 162.872 160.27 162.976 160.162C163.084 160.054 163.214 160 163.366 160C163.522 160 163.654 160.054 163.762 160.162C163.87 160.27 163.924 160.398 163.924 160.546C163.924 160.702 163.87 160.834 163.762 160.942C163.654 161.05 163.522 161.104 163.366 161.104ZM163.366 166.156C163.214 166.156 163.084 166.102 162.976 165.994C162.872 165.886 162.82 165.754 162.82 165.598C162.82 165.45 162.872 165.322 162.976 165.214C163.084 165.106 163.214 165.052 163.366 165.052C163.522 165.052 163.654 165.106 163.762 165.214C163.87 165.322 163.924 165.45 163.924 165.598C163.924 165.754 163.87 165.886 163.762 165.994C163.654 166.102 163.522 166.156 163.366 166.156ZM168.992 166.156C168.492 166.156 168.044 166.044 167.648 165.82C167.252 165.592 166.912 165.278 166.628 164.878C166.344 164.478 166.128 164.016 165.98 163.492C165.832 162.964 165.758 162.4 165.758 161.8C165.758 161.2 165.832 160.636 165.98 160.108C166.128 159.58 166.344 159.118 166.628 158.722C166.912 158.322 167.252 158.01 167.648 157.786C168.044 157.558 168.492 157.444 168.992 157.444C169.488 157.444 169.934 157.558 170.33 157.786C170.73 158.01 171.068 158.322 171.344 158.722C171.624 159.118 171.838 159.58 171.986 160.108C172.138 160.636 172.214 161.2 172.214 161.8C172.214 162.4 172.138 162.964 171.986 163.492C171.838 164.016 171.624 164.478 171.344 164.878C171.068 165.278 170.73 165.592 170.33 165.82C169.934 166.044 169.488 166.156 168.992 166.156ZM168.992 165.148C169.492 165.148 169.91 164.994 170.246 164.686C170.586 164.374 170.84 163.964 171.008 163.456C171.176 162.948 171.26 162.396 171.26 161.8C171.26 161.172 171.172 160.606 170.996 160.102C170.824 159.594 170.568 159.192 170.228 158.896C169.892 158.6 169.48 158.452 168.992 158.452C168.608 158.452 168.272 158.542 167.984 158.722C167.7 158.902 167.464 159.148 167.276 159.46C167.088 159.772 166.946 160.13 166.85 160.534C166.758 160.934 166.712 161.356 166.712 161.8C166.712 162.396 166.798 162.95 166.97 163.462C167.142 163.97 167.396 164.378 167.732 164.686C168.072 164.994 168.492 165.148 168.992 165.148ZM176.75 166.156C176.25 166.156 175.802 166.044 175.406 165.82C175.01 165.592 174.67 165.278 174.386 164.878C174.102 164.478 173.886 164.016 173.738 163.492C173.59 162.964 173.516 162.4 173.516 161.8C173.516 161.2 173.59 160.636 173.738 160.108C173.886 159.58 174.102 159.118 174.386 158.722C174.67 158.322 175.01 158.01 175.406 157.786C175.802 157.558 176.25 157.444 176.75 157.444C177.246 157.444 177.692 157.558 178.088 157.786C178.488 158.01 178.826 158.322 179.102 158.722C179.382 159.118 179.596 159.58 179.744 160.108C179.896 160.636 179.972 161.2 179.972 161.8C179.972 162.4 179.896 162.964 179.744 163.492C179.596 164.016 179.382 164.478 179.102 164.878C178.826 165.278 178.488 165.592 178.088 165.82C177.692 166.044 177.246 166.156 176.75 166.156ZM176.75 165.148C177.25 165.148 177.668 164.994 178.004 164.686C178.344 164.374 178.598 163.964 178.766 163.456C178.934 162.948 179.018 162.396 179.018 161.8C179.018 161.172 178.93 160.606 178.754 160.102C178.582 159.594 178.326 159.192 177.986 158.896C177.65 158.6 177.238 158.452 176.75 158.452C176.366 158.452 176.03 158.542 175.742 158.722C175.458 158.902 175.222 159.148 175.034 159.46C174.846 159.772 174.704 160.13 174.608 160.534C174.516 160.934 174.47 161.356 174.47 161.8C174.47 162.396 174.556 162.95 174.728 163.462C174.9 163.97 175.154 164.378 175.49 164.686C175.83 164.994 176.25 165.148 176.75 165.148Z" fill="#9F9F9F"/>
<path fill-rule="evenodd" clip-rule="evenodd" d="M49.8963 138.164C48.754 138.164 47.8247 139.094 47.8247 140.236C47.8247 141.378 48.754 142.307 49.8963 142.307C51.0385 142.307 51.9678 141.378 51.9678 140.236C51.9678 139.094 51.0385 138.164 49.8963 138.164ZM49.8964 135.34C52.6006 135.34 54.7928 137.532 54.7928 140.236C54.7928 142.941 52.6006 145.133 49.8964 145.133C47.1922 145.133 45 142.941 45 140.236C45 137.532 47.1922 135.34 49.8964 135.34Z" fill="#00B383"/>
<path d="M60.689 146V136.144H59.433L59.809 134.8H62.033V146H60.689ZM68.8506 146.208C68.1839 146.208 67.5866 146.059 67.0586 145.76C66.5306 145.456 66.0773 145.037 65.6986 144.504C65.3199 143.971 65.0319 143.355 64.8346 142.656C64.6373 141.952 64.5386 141.2 64.5386 140.4C64.5386 139.6 64.6373 138.848 64.8346 138.144C65.0319 137.44 65.3199 136.824 65.6986 136.296C66.0773 135.763 66.5306 135.347 67.0586 135.048C67.5866 134.744 68.1839 134.592 68.8506 134.592C69.5119 134.592 70.1066 134.744 70.6346 135.048C71.1679 135.347 71.6186 135.763 71.9866 136.296C72.3599 136.824 72.6453 137.44 72.8426 138.144C73.0453 138.848 73.1466 139.6 73.1466 140.4C73.1466 141.2 73.0453 141.952 72.8426 142.656C72.6453 143.355 72.3599 143.971 71.9866 144.504C71.6186 145.037 71.1679 145.456 70.6346 145.76C70.1066 146.059 69.5119 146.208 68.8506 146.208ZM68.8506 144.864C69.5173 144.864 70.0746 144.659 70.5226 144.248C70.9759 143.832 71.3146 143.285 71.5386 142.608C71.7626 141.931 71.8746 141.195 71.8746 140.4C71.8746 139.563 71.7573 138.808 71.5226 138.136C71.2933 137.459 70.9519 136.923 70.4986 136.528C70.0506 136.133 69.5013 135.936 68.8506 135.936C68.3386 135.936 67.8906 136.056 67.5066 136.296C67.1279 136.536 66.8133 136.864 66.5626 137.28C66.3119 137.696 66.1226 138.173 65.9946 138.712C65.8719 139.245 65.8106 139.808 65.8106 140.4C65.8106 141.195 65.9253 141.933 66.1546 142.616C66.3839 143.293 66.7226 143.837 67.1706 144.248C67.6239 144.659 68.1839 144.864 68.8506 144.864ZM75.7391 139.472C75.5364 139.472 75.3631 139.4 75.2191 139.256C75.0804 139.112 75.0111 138.936 75.0111 138.728C75.0111 138.531 75.0804 138.36 75.2191 138.216C75.3631 138.072 75.5364 138 75.7391 138C75.9471 138 76.1231 138.072 76.2671 138.216C76.4111 138.36 76.4831 138.531 76.4831 138.728C76.4831 138.936 76.4111 139.112 76.2671 139.256C76.1231 139.4 75.9471 139.472 75.7391 139.472ZM75.7391 146.208C75.5364 146.208 75.3631 146.136 75.2191 145.992C75.0804 145.848 75.0111 145.672 75.0111 145.464C75.0111 145.267 75.0804 145.096 75.2191 144.952C75.3631 144.808 75.5364 144.736 75.7391 144.736C75.9471 144.736 76.1231 144.808 76.2671 144.952C76.4111 145.096 76.4831 145.267 76.4831 145.464C76.4831 145.672 76.4111 145.848 76.2671 145.992C76.1231 146.136 75.9471 146.208 75.7391 146.208ZM82.9912 146.208C82.3246 146.208 81.7272 146.059 81.1992 145.76C80.6712 145.456 80.2179 145.037 79.8392 144.504C79.4606 143.971 79.1726 143.355 78.9752 142.656C78.7779 141.952 78.6792 141.2 78.6792 140.4C78.6792 139.6 78.7779 138.848 78.9752 138.144C79.1726 137.44 79.4606 136.824 79.8392 136.296C80.2179 135.763 80.6712 135.347 81.1992 135.048C81.7272 134.744 82.3246 134.592 82.9912 134.592C83.6526 134.592 84.2472 134.744 84.7752 135.048C85.3086 135.347 85.7592 135.763 86.1272 136.296C86.5006 136.824 86.7859 137.44 86.9832 138.144C87.1859 138.848 87.2872 139.6 87.2872 140.4C87.2872 141.2 87.1859 141.952 86.9832 142.656C86.7859 143.355 86.5006 143.971 86.1272 144.504C85.7592 145.037 85.3086 145.456 84.7752 145.76C84.2472 146.059 83.6526 146.208 82.9912 146.208ZM82.9912 144.864C83.6579 144.864 84.2152 144.659 84.6632 144.248C85.1166 143.832 85.4552 143.285 85.6792 142.608C85.9032 141.931 86.0152 141.195 86.0152 140.4C86.0152 139.563 85.8979 138.808 85.6632 138.136C85.4339 137.459 85.0926 136.923 84.6392 136.528C84.1912 136.133 83.6419 135.936 82.9912 135.936C82.4792 135.936 82.0312 136.056 81.6472 136.296C81.2686 136.536 80.9539 136.864 80.7032 137.28C80.4526 137.696 80.2632 138.173 80.1352 138.712C80.0126 139.245 79.9512 139.808 79.9512 140.4C79.9512 141.195 80.0659 141.933 80.2952 142.616C80.5246 143.293 80.8632 143.837 81.3112 144.248C81.7646 144.659 82.3246 144.864 82.9912 144.864ZM93.085 146.208C92.4183 146.208 91.821 146.059 91.293 145.76C90.765 145.456 90.3116 145.037 89.933 144.504C89.5543 143.971 89.2663 143.355 89.069 142.656C88.8716 141.952 88.773 141.2 88.773 140.4C88.773 139.6 88.8716 138.848 89.069 138.144C89.2663 137.44 89.5543 136.824 89.933 136.296C90.3116 135.763 90.765 135.347 91.293 135.048C91.821 134.744 92.4183 134.592 93.085 134.592C93.7463 134.592 94.341 134.744 94.869 135.048C95.4023 135.347 95.853 135.763 96.221 136.296C96.5943 136.824 96.8796 137.44 97.077 138.144C97.2796 138.848 97.381 139.6 97.381 140.4C97.381 141.2 97.2796 141.952 97.077 142.656C96.8796 143.355 96.5943 143.971 96.221 144.504C95.853 145.037 95.4023 145.456 94.869 145.76C94.341 146.059 93.7463 146.208 93.085 146.208ZM93.085 144.864C93.7516 144.864 94.309 144.659 94.757 144.248C95.2103 143.832 95.549 143.285 95.773 142.608C95.997 141.931 96.109 141.195 96.109 140.4C96.109 139.563 95.9916 138.808 95.757 138.136C95.5276 137.459 95.1863 136.923 94.733 136.528C94.285 136.133 93.7356 135.936 93.085 135.936C92.573 135.936 92.125 136.056 91.741 136.296C91.3623 136.536 91.0476 136.864 90.797 137.28C90.5463 137.696 90.357 138.173 90.229 138.712C90.1063 139.245 90.045 139.808 90.045 140.4C90.045 141.195 90.1596 141.933 90.389 142.616C90.6183 143.293 90.957 143.837 91.405 144.248C91.8583 144.659 92.4183 144.864 93.085 144.864Z" fill="#9F9F9F"/>
<g filter="url(#filter2_d_20_1731)">
<path fill-rule="evenodd" clip-rule="evenodd" d="M49.8963 91.1642C48.754 91.1642 47.8247 92.0935 47.8247 93.2358C47.8247 94.378 48.754 95.3073 49.8963 95.3073C51.0385 95.3073 51.9678 94.378 51.9678 93.2358C51.9678 92.0935 51.0385 91.1642 49.8963 91.1642ZM49.8964 88.34C52.6006 88.34 54.7928 90.5322 54.7928 93.2364C54.7928 95.9406 52.6006 98.1328 49.8964 98.1328C47.1922 98.1328 45 95.9406 45 93.2364C45 90.5322 47.1922 88.34 49.8964 88.34Z" fill="#35383F"/>
<path d="M63.633 99.208C62.9823 99.208 62.3903 99.0587 61.857 98.76C61.3236 98.456 60.8623 98.0373 60.473 97.504C60.089 96.9707 59.793 96.3547 59.585 95.656C59.377 94.952 59.273 94.2 59.273 93.4C59.273 92.6 59.377 91.8507 59.585 91.152C59.793 90.448 60.089 89.8293 60.473 89.296C60.8623 88.7627 61.3236 88.3467 61.857 88.048C62.3903 87.744 62.9823 87.592 63.633 87.592C64.2836 87.592 64.8756 87.744 65.409 88.048C65.9423 88.3467 66.3983 88.7627 66.777 89.296C67.161 89.8293 67.457 90.448 67.665 91.152C67.8783 91.8507 67.985 92.6 67.985 93.4C67.985 94.2 67.8783 94.952 67.665 95.656C67.457 96.3547 67.161 96.9707 66.777 97.504C66.3983 98.0373 65.9423 98.456 65.409 98.76C64.8756 99.0587 64.2836 99.208 63.633 99.208ZM63.633 97.256C64.2036 97.256 64.6756 97.0747 65.049 96.712C65.4223 96.3493 65.6996 95.8747 65.881 95.288C66.0623 94.7013 66.153 94.072 66.153 93.4C66.153 92.6907 66.057 92.0453 65.865 91.464C65.673 90.8773 65.3903 90.4107 65.017 90.064C64.6436 89.7173 64.1823 89.544 63.633 89.544C63.201 89.544 62.825 89.6507 62.505 89.864C62.1903 90.072 61.929 90.3573 61.721 90.72C61.513 91.0827 61.3583 91.496 61.257 91.96C61.1556 92.4187 61.105 92.8987 61.105 93.4C61.105 94.0667 61.1956 94.696 61.377 95.288C61.5636 95.8747 61.8436 96.3493 62.217 96.712C62.5956 97.0747 63.0676 97.256 63.633 97.256ZM71.5348 99L73.6868 95.28C73.1588 95.312 72.6548 95.24 72.1748 95.064C71.7002 94.888 71.2762 94.6267 70.9028 94.28C70.5295 93.9333 70.2335 93.5227 70.0148 93.048C69.8015 92.5733 69.6948 92.0587 69.6948 91.504C69.6948 90.9653 69.7962 90.4613 69.9988 89.992C70.2015 89.5173 70.4815 89.1013 70.8388 88.744C71.2015 88.3813 71.6175 88.0987 72.0868 87.896C72.5615 87.6933 73.0708 87.592 73.6148 87.592C74.3242 87.592 74.9722 87.768 75.5588 88.12C76.1508 88.472 76.6228 88.944 76.9748 89.536C77.3322 90.128 77.5108 90.784 77.5108 91.504C77.5108 91.8613 77.4655 92.2 77.3748 92.52C77.2895 92.8347 77.1535 93.1547 76.9668 93.48L73.7908 99H71.5348ZM73.5988 93.464C73.9828 93.464 74.3215 93.3707 74.6148 93.184C74.9135 92.9973 75.1455 92.7547 75.3108 92.456C75.4762 92.1573 75.5588 91.8373 75.5588 91.496C75.5588 91.1227 75.4682 90.7893 75.2868 90.496C75.1055 90.1973 74.8655 89.9653 74.5668 89.8C74.2682 89.6293 73.9508 89.544 73.6148 89.544C73.2308 89.544 72.8895 89.6373 72.5908 89.824C72.2975 90.0053 72.0655 90.2453 71.8948 90.544C71.7242 90.8427 71.6388 91.16 71.6388 91.496C71.6388 91.8533 71.7242 92.1813 71.8948 92.48C72.0708 92.7787 72.3055 93.0187 72.5988 93.2C72.8975 93.376 73.2308 93.464 73.5988 93.464ZM80.3861 93.008C80.1088 93.008 79.8714 92.912 79.6741 92.72C79.4821 92.5227 79.3861 92.2827 79.3861 92C79.3861 91.728 79.4821 91.4933 79.6741 91.296C79.8714 91.0987 80.1088 91 80.3861 91C80.6634 91 80.9008 91.0987 81.0981 91.296C81.2954 91.4933 81.3941 91.728 81.3941 92C81.3941 92.2827 81.2954 92.5227 81.0981 92.72C80.9008 92.912 80.6634 93.008 80.3861 93.008ZM80.3861 99.208C80.1088 99.208 79.8714 99.112 79.6741 98.92C79.4821 98.7227 79.3861 98.4827 79.3861 98.2C79.3861 97.928 79.4821 97.6933 79.6741 97.496C79.8714 97.2987 80.1088 97.2 80.3861 97.2C80.6634 97.2 80.9008 97.2987 81.0981 97.496C81.2954 97.6933 81.3941 97.928 81.3941 98.2C81.3941 98.4827 81.2954 98.7227 81.0981 98.92C80.9008 99.112 80.6634 99.208 80.3861 99.208ZM87.9455 99.208C87.2948 99.208 86.7028 99.0587 86.1695 98.76C85.6361 98.456 85.1748 98.0373 84.7855 97.504C84.4015 96.9707 84.1055 96.3547 83.8975 95.656C83.6895 94.952 83.5855 94.2 83.5855 93.4C83.5855 92.6 83.6895 91.8507 83.8975 91.152C84.1055 90.448 84.4015 89.8293 84.7855 89.296C85.1748 88.7627 85.6361 88.3467 86.1695 88.048C86.7028 87.744 87.2948 87.592 87.9455 87.592C88.5961 87.592 89.1881 87.744 89.7215 88.048C90.2548 88.3467 90.7108 88.7627 91.0895 89.296C91.4735 89.8293 91.7695 90.448 91.9775 91.152C92.1908 91.8507 92.2975 92.6 92.2975 93.4C92.2975 94.2 92.1908 94.952 91.9775 95.656C91.7695 96.3547 91.4735 96.9707 91.0895 97.504C90.7108 98.0373 90.2548 98.456 89.7215 98.76C89.1881 99.0587 88.5961 99.208 87.9455 99.208ZM87.9455 97.256C88.5161 97.256 88.9881 97.0747 89.3615 96.712C89.7348 96.3493 90.0121 95.8747 90.1935 95.288C90.3748 94.7013 90.4655 94.072 90.4655 93.4C90.4655 92.6907 90.3695 92.0453 90.1775 91.464C89.9855 90.8773 89.7028 90.4107 89.3295 90.064C88.9561 89.7173 88.4948 89.544 87.9455 89.544C87.5135 89.544 87.1375 89.6507 86.8175 89.864C86.5028 90.072 86.2415 90.3573 86.0335 90.72C85.8255 91.0827 85.6708 91.496 85.5695 91.96C85.4681 92.4187 85.4175 92.8987 85.4175 93.4C85.4175 94.0667 85.5081 94.696 85.6895 95.288C85.8761 95.8747 86.1561 96.3493 86.5295 96.712C86.9081 97.0747 87.3801 97.256 87.9455 97.256ZM98.008 99.208C97.3573 99.208 96.7653 99.0587 96.232 98.76C95.6986 98.456 95.2373 98.0373 94.848 97.504C94.464 96.9707 94.168 96.3547 93.96 95.656C93.752 94.952 93.648 94.2 93.648 93.4C93.648 92.6 93.752 91.8507 93.96 91.152C94.168 90.448 94.464 89.8293 94.848 89.296C95.2373 88.7627 95.6986 88.3467 96.232 88.048C96.7653 87.744 97.3573 87.592 98.008 87.592C98.6586 87.592 99.2506 87.744 99.784 88.048C100.317 88.3467 100.773 88.7627 101.152 89.296C101.536 89.8293 101.832 90.448 102.04 91.152C102.253 91.8507 102.36 92.6 102.36 93.4C102.36 94.2 102.253 94.952 102.04 95.656C101.832 96.3547 101.536 96.9707 101.152 97.504C100.773 98.0373 100.317 98.456 99.784 98.76C99.2506 99.0587 98.6586 99.208 98.008 99.208ZM98.008 97.256C98.5786 97.256 99.0506 97.0747 99.424 96.712C99.7973 96.3493 100.075 95.8747 100.256 95.288C100.437 94.7013 100.528 94.072 100.528 93.4C100.528 92.6907 100.432 92.0453 100.24 91.464C100.048 90.8773 99.7653 90.4107 99.392 90.064C99.0186 89.7173 98.5573 89.544 98.008 89.544C97.576 89.544 97.2 89.6507 96.88 89.864C96.5653 90.072 96.304 90.3573 96.096 90.72C95.888 91.0827 95.7333 91.496 95.632 91.96C95.5306 92.4187 95.48 92.8987 95.48 93.4C95.48 94.0667 95.5706 94.696 95.752 95.288C95.9386 95.8747 96.2186 96.3493 96.592 96.712C96.9706 97.0747 97.4426 97.256 98.008 97.256Z" fill="white"/>
<rect x="31" y="70" width="292" height="47" rx="20" stroke="#584CF3" stroke-width="2" stroke-miterlimit="0" stroke-linejoin="bevel" shape-rendering="crispEdges"/>
</g>
<rect x="1.5" y="0.5" width="351" height="386" rx="29.5" stroke="#424245"/>
<defs>
<filter id="filter0_d_20_1731" x="1" y="-4" width="414" height="107" filterUnits="userSpaceOnUse" color-interpolation-filters="sRGB">
<feFlood flood-opacity="0" result="BackgroundImageFix"/>
<feColorMatrix in="SourceAlpha" type="matrix" values="0 0 0 0 0 0 0 0 0 0 0 0 0 0 0 0 0 0 127 0" result="hardAlpha"/>
<feOffset dy="3"/>
<feGaussianBlur stdDeviation="15"/>
<feComposite in2="hardAlpha" operator="out"/>
<feColorMatrix type="matrix" values="0 0 0 0 0 0 0 0 0 0 0 0 0 0 0 0 0 0 0.0588 0"/>
<feBlend mode="normal" in2="BackgroundImageFix" result="effect1_dropShadow_20_1731"/>
<feBlend mode="normal" in="SourceGraphic" in2="effect1_dropShadow_20_1731" result="shape"/>
</filter>
<filter id="filter1_d_20_1731" x="1" y="280" width="352" height="113" filterUnits="userSpaceOnUse" color-interpolation-filters="sRGB">
<feFlood flood-opacity="0" result="BackgroundImageFix"/>
<feColorMatrix in="SourceAlpha" type="matrix" values="0 0 0 0 0 0 0 0 0 0 0 0 0 0 0 0 0 0 127 0" result="hardAlpha"/>
<feOffset dy="3"/>
<feGaussianBlur stdDeviation="15"/>
<feComposite in2="hardAlpha" operator="out"/>
<feColorMatrix type="matrix" values="0 0 0 0 0 0 0 0 0 0 0 0 0 0 0 0 0 0 0.0588 0"/>
<feBlend mode="normal" in2="BackgroundImageFix" result="effect1_dropShadow_20_1731"/>
<feBlend mode="normal" in="SourceGraphic" in2="effect1_dropShadow_20_1731" result="shape"/>
</filter>
<filter id="filter2_d_20_1731" x="0" y="42" width="354" height="109" filterUnits="userSpaceOnUse" color-interpolation-filters="sRGB">
<feFlood flood-opacity="0" result="BackgroundImageFix"/>
<feColorMatrix in="SourceAlpha" type="matrix" values="0 0 0 0 0 0 0 0 0 0 0 0 0 0 0 0 0 0 127 0" result="hardAlpha"/>
<feOffset dy="3"/>
<feGaussianBlur stdDeviation="15"/>
<feComposite in2="hardAlpha" operator="out"/>
<feColorMatrix type="matrix" values="0 0 0 0 0 0 0 0 0 0 0 0 0 0 0 0 0 0 0.0588 0"/>
<feBlend mode="normal" in2="BackgroundImageFix" result="effect1_dropShadow_20_1731"/>
<feBlend mode="normal" in="SourceGraphic" in2="effect1_dropShadow_20_1731" result="shape"/>
</filter>
<linearGradient id="paint0_linear_20_1731" x1="177" y1="0" x2="177" y2="387" gradientUnits="userSpaceOnUse">
<stop stop-color="#36363E"/>
<stop offset="1" stop-color="#292930"/>
</linearGradient>
</defs>
</svg>
